<?xml version="1.0" encoding="UTF-8"?>
<!DOCTYPE svg PUBLIC "-//W3C//DTD SVG 1.1//EN" "http://www.w3.org/Graphics/SVG/1.1/DTD/svg11.dtd">
<!-- Creator: CorelDRAW 2018 (64-Bit) -->
<svg xmlns="http://www.w3.org/2000/svg" xml:space="preserve" width="100mm" height="100mm" version="1.1" style="shape-rendering:geometricPrecision; text-rendering:geometricPrecision; image-rendering:optimizeQuality; fill-rule:evenodd; clip-rule:evenodd"
viewBox="0 0 100000 100000"
 xmlns:xlink="http://www.w3.org/1999/xlink">
 <defs>
  <style type="text/css">
   <![CDATA[
    .fil0 {fill:#FDB943;fill-rule:nonzero}
   ]]>
  </style>
 </defs>
 <g id="Katman_x0020_1">
  <metadata id="CorelCorpID_0Corel-Layer"/>
  <path class="fil0" d="M49757.4 38665.5c0,776.2 -48.5,1406.7 -145.5,1940.3 -97,517.4 -210.2,937.8 -371.9,1261.2 -161.7,323.4 -355.7,549.7 -598.2,695.3 -226.4,145.5 -468.9,210.2 -727.6,210.2l-5384.3 0 -1616.9 13581.9 4624.3 0c533.6,0 970.2,307.2 1293.5,921.6 339.6,614.5 501.3,1649.3 501.3,3104.5 0,759.9 -48.5,1406.7 -145.5,1940.3 -97.1,533.5 -210.2,970.1 -371.9,1277.3 -161.7,323.4 -355.7,549.8 -598.3,695.3 -226.3,145.5 -468.9,210.2 -727.6,210.2l-5610.6 0 -1762.4 14794.6c-32.4,274.9 -113.2,517.4 -258.7,727.6 -145.6,210.2 -388.1,388.1 -760,549.7 -355.7,145.6 -840.8,258.8 -1471.4,323.4 -614.4,64.7 -1390.5,97 -2328.3,97 -1018.6,0 -1827.1,-32.3 -2441.5,-97 -614.4,-64.6 -1083.3,-177.8 -1390.5,-323.4 -323.4,-161.6 -533.6,-339.5 -646.8,-549.7 -113.2,-210.2 -145.5,-452.7 -113.2,-727.6l1810.9 -14794.6 -10623 0 -1762.4 14794.6c-32.3,242.5 -113.2,485.1 -258.7,711.4 -145.5,210.2 -388.1,404.3 -743.8,565.9 -339.5,145.6 -824.6,258.8 -1439,323.4 -630.6,64.7 -1439.1,97 -2457.7,97 -970.1,0 -1762.4,-32.3 -2376.8,-97 -598.3,-64.6 -1067.2,-177.8 -1390.6,-323.4 -339.5,-161.6 -565.9,-339.5 -679.1,-549.7 -97,-210.2 -129.3,-452.7 -64.7,-727.6l1730.1 -14794.6 -4494.9 0c-533.6,0 -970.2,-307.2 -1293.6,-905.5 -339.5,-598.2 -501.2,-1633.1 -501.2,-3120.6 0,-759.9 48.5,-1406.7 145.5,-1940.3 97,-533.6 210.2,-970.1 371.9,-1277.3 161.7,-323.4 355.7,-549.8 565.9,-695.3 226.4,-145.5 485.1,-210.2 760,-210.2l5497.4 0 1616.9 -13581.9 -4818.3 0c-533.6,0 -970.2,-307.2 -1309.7,-905.5 -339.6,-598.2 -501.3,-1649.2 -501.3,-3152.9 0,-1519.9 177.9,-2587.1 517.4,-3185.3 355.8,-598.3 808.5,-905.5 1342.1,-905.5l5740 0 1713.9 -13776c0,-291 80.8,-533.6 242.5,-727.6 145.5,-210.2 420.4,-388 792.3,-549.7 388,-161.7 889.3,-274.9 1519.9,-355.7 630.6,-80.9 1439,-113.2 2409.1,-113.2 986.3,0 1762.5,32.3 2360.7,113.2 598.3,80.8 1067.2,194 1374.4,355.7 323.4,161.7 517.4,339.5 598.2,549.7 80.9,194 113.2,420.4 113.2,679.1l-1762.4 13824.5 10623 0 1616.9 -13776c32.3,-258.7 129.4,-485 291.1,-711.4 145.5,-210.2 404.2,-404.2 776.1,-565.9 355.7,-161.7 856.9,-274.9 1487.5,-355.7 630.6,-80.9 1455.2,-113.2 2457.7,-113.2 970.1,0 1762.4,32.3 2360.7,113.2 598.2,80.8 1067.1,194 1374.3,355.7 323.4,161.7 517.4,339.5 598.3,549.7 64.7,194 97,420.4 64.7,679.1l-1665.4 13824.5 4527.3 0c533.5,0 970.1,307.2 1293.5,921.6 339.5,630.6 501.2,1665.4 501.2,3120.6zm-27260.9 4107l-1600.7 13581.9 10558.3 0 1665.4 -13581.9 -10623 0z"/>
  <path id="1" class="fil0" d="M95839 75967.4c0,889.3 -48.5,1633.1 -145.5,2247.5 -97,614.4 -226.4,1115.6 -404.2,1471.4 -161.7,371.8 -371.9,630.5 -582.1,776.1 -226.4,161.7 -485.1,242.5 -760,242.5l-33906.3 0c-242.6,0 -485.1,-80.8 -711.5,-242.5 -210.2,-145.6 -404.2,-404.3 -582,-776.1 -177.9,-355.8 -307.3,-857 -404.3,-1471.4 -97,-614.4 -145.5,-1358.2 -145.5,-2247.5 0,-905.5 32.4,-1665.4 113.2,-2296 80.8,-614.4 210.2,-1099.5 388.1,-1487.6 177.8,-371.8 371.8,-646.7 598.2,-824.6 210.2,-177.8 468.9,-258.7 743.8,-258.7l11447.6 0 0 -39872.7 -9846.9 5432.8c-711.4,339.5 -1309.7,565.9 -1762.4,646.7 -468.9,64.7 -824.6,-16.1 -1099.5,-291 -258.7,-274.9 -436.6,-727.6 -533.6,-1390.5 -97,-663 -145.5,-1600.8 -145.5,-2797.3 0,-759.9 16.2,-1390.5 48.5,-1875.6 32.3,-485 113.2,-905.4 242.5,-1245 113.2,-355.7 291.1,-630.6 517.4,-856.9 210.2,-226.4 517.5,-452.8 889.3,-711.5l13161.6 -8521c161.7,-129.4 355.7,-226.4 582.1,-307.2 242.5,-80.9 549.7,-145.5 937.8,-194.1 371.9,-48.5 873.1,-80.8 1487.5,-97 614.4,-16.1 1406.7,-16.1 2393,-16.1 1196.5,0 2166.7,16.1 2910.5,64.6 743.7,48.5 1309.6,129.4 1681.5,242.6 388.1,113.2 630.6,258.7 760,452.7 129.3,194 194,420.4 194,711.4l0 50625.1 10024.8 0c291,0 549.7,80.9 792.2,258.7 242.6,177.9 436.6,452.8 614.5,824.6 177.8,388.1 307.2,873.2 388,1487.6 80.9,630.6 113.2,1390.5 113.2,2296z"/>
 </g>
</svg>
