<svg width="400" height="200" viewBox="0 0 400 200" fill="none" xmlns="http://www.w3.org/2000/svg">
    <g id="logo1svg1">
        <g id="instagram">
            <path id="Vector" d="M365.29 153.441C361.187 153.441 360.673 153.459 359.061 153.532C357.453 153.605 356.355 153.861 355.394 154.234C354.4 154.621 353.558 155.137 352.718 155.977C351.878 156.817 351.361 157.659 350.975 158.653C350.602 159.614 350.346 160.712 350.273 162.32C350.199 163.932 350.182 164.446 350.182 168.549C350.182 172.653 350.199 173.167 350.273 174.779C350.346 176.387 350.602 177.485 350.975 178.446C351.361 179.439 351.878 180.282 352.718 181.122C353.558 181.962 354.4 182.479 355.394 182.865C356.355 183.238 357.453 183.493 359.061 183.567C360.673 183.64 361.187 183.658 365.29 183.658C369.394 183.658 369.908 183.64 371.519 183.567C373.128 183.493 374.226 183.238 375.187 182.865C376.18 182.479 377.023 181.962 377.863 181.122C378.703 180.282 379.219 179.439 379.605 178.446C379.979 177.485 380.234 176.387 380.308 174.779C380.381 173.167 380.399 172.653 380.399 168.549C380.399 164.446 380.381 163.932 380.308 162.32C380.234 160.712 379.979 159.614 379.605 158.653C379.219 157.659 378.703 156.817 377.863 155.977C377.023 155.137 376.18 154.621 375.187 154.234C374.226 153.861 373.128 153.605 371.519 153.532C369.908 153.459 369.394 153.441 365.29 153.441V153.441ZM365.29 156.163C369.324 156.163 369.802 156.179 371.395 156.252C372.868 156.319 373.668 156.565 374.201 156.772C374.906 157.046 375.409 157.373 375.938 157.902C376.467 158.431 376.794 158.934 377.068 159.639C377.275 160.172 377.521 160.971 377.588 162.445C377.661 164.038 377.676 164.515 377.676 168.549C377.676 172.584 377.661 173.061 377.588 174.654C377.521 176.128 377.275 176.928 377.068 177.46C376.794 178.165 376.467 178.668 375.938 179.197C375.409 179.726 374.906 180.053 374.201 180.327C373.668 180.534 372.868 180.78 371.395 180.847C369.803 180.92 369.325 180.936 365.29 180.936C361.256 180.936 360.778 180.92 359.185 180.847C357.712 180.78 356.912 180.534 356.38 180.327C355.675 180.053 355.171 179.726 354.643 179.197C354.114 178.668 353.787 178.165 353.513 177.46C353.306 176.928 353.06 176.128 352.992 174.654C352.92 173.061 352.904 172.584 352.904 168.549C352.904 164.515 352.92 164.038 352.992 162.445C353.06 160.971 353.306 160.172 353.513 159.639C353.787 158.934 354.114 158.431 354.643 157.902C355.171 157.373 355.675 157.046 356.38 156.772C356.912 156.565 357.712 156.319 359.185 156.252C360.778 156.179 361.256 156.163 365.29 156.163V156.163Z" fill="#060808"/>
            <path id="Vector_2" d="M365.29 173.586C362.509 173.586 360.254 171.331 360.254 168.549C360.254 165.768 362.509 163.513 365.29 163.513C368.072 163.513 370.326 165.768 370.326 168.549C370.326 171.331 368.072 173.586 365.29 173.586ZM365.29 160.791C361.006 160.791 357.532 164.265 357.532 168.549C357.532 172.834 361.006 176.308 365.29 176.308C369.575 176.308 373.049 172.834 373.049 168.549C373.049 164.265 369.575 160.791 365.29 160.791Z" fill="#060808"/>
            <path id="Vector_3" d="M375.168 160.485C375.168 161.486 374.356 162.298 373.355 162.298C372.354 162.298 371.542 161.486 371.542 160.485C371.542 159.483 372.354 158.672 373.355 158.672C374.356 158.672 375.168 159.483 375.168 160.485Z" fill="#060808"/>
        </g>
        <g id="facebook">
            <path id="Vector_4" d="M345.841 42.5627C345.841 32.5872 337.755 24.5005 327.779 24.5005C317.804 24.5005 309.717 32.5872 309.717 42.5627C309.717 51.578 316.322 59.0504 324.957 60.4055V47.7838H320.371V42.5627H324.957V38.5833C324.957 34.0565 327.654 31.556 331.779 31.556C333.756 31.556 335.823 31.9088 335.823 31.9088V36.3538H333.545C331.301 36.3538 330.601 37.7461 330.601 39.1745V42.5627H335.611L334.81 47.7838H330.601V60.4055C339.236 59.0504 345.841 51.578 345.841 42.5627V42.5627Z" fill="#1877F2"/>
            <path id="Vector_5" d="M334.81 47.7838L335.611 42.5627H330.601V39.1745C330.601 37.7461 331.301 36.3538 333.545 36.3538H335.823V31.9088C335.823 31.9088 333.756 31.556 331.779 31.556C327.654 31.556 324.957 34.0565 324.957 38.5833V42.5627H320.371V47.7838H324.957V60.4055C325.877 60.5497 326.819 60.6249 327.779 60.6249C328.739 60.6249 329.682 60.5497 330.601 60.4055V47.7838H334.81V47.7838Z" fill="white"/>
        </g>
        <g id="twitter">
            <path id="Vector_6" d="M345.934 114.505C357.532 114.505 366.934 105.103 366.934 93.505C366.934 81.907 357.532 72.505 345.934 72.505C334.336 72.505 324.934 81.907 324.934 93.505C324.934 105.103 334.336 114.505 345.934 114.505Z" fill="#1DA1F2"/>
            <path id="Vector_7" fill-rule="evenodd" clip-rule="evenodd" d="M342.091 104.583C351.404 104.583 356.497 96.865 356.497 90.1765C356.497 89.956 356.497 89.7355 356.486 89.5255C357.473 88.8115 358.334 87.919 359.017 86.9005C358.114 87.2995 357.137 87.5725 356.108 87.6985C357.158 87.0685 357.956 86.0815 358.334 84.895C357.358 85.4725 356.276 85.8925 355.121 86.1235C354.197 85.1365 352.885 84.5275 351.425 84.5275C348.632 84.5275 346.364 86.7955 346.364 89.5885C346.364 89.9875 346.406 90.376 346.501 90.7435C342.29 90.5335 338.563 88.5175 336.064 85.4515C335.633 86.197 335.381 87.0685 335.381 87.9925C335.381 89.746 336.274 91.3 337.639 92.203C336.809 92.182 336.032 91.951 335.35 91.573C335.35 91.594 335.35 91.615 335.35 91.636C335.35 94.093 337.093 96.13 339.413 96.6025C338.993 96.718 338.542 96.781 338.08 96.781C337.754 96.781 337.439 96.7495 337.124 96.6865C337.765 98.7025 339.634 100.162 341.849 100.204C340.117 101.559 337.933 102.367 335.56 102.367C335.15 102.367 334.751 102.346 334.352 102.293C336.568 103.742 339.235 104.583 342.091 104.583V104.583Z" fill="white"/>
        </g>
        <g id="youtube">
            <path id="Vector_8" d="M315.377 70.2252C315.02 68.8808 313.968 67.8221 312.633 67.4627C310.212 66.8098 300.504 66.8098 300.504 66.8098C300.504 66.8098 290.796 66.8098 288.375 67.4627C287.039 67.8221 285.987 68.8808 285.63 70.2252C284.981 72.6619 284.982 77.7459 284.982 77.7459C284.982 77.7459 284.981 82.8299 285.63 85.2666C285.987 86.6109 287.039 87.6697 288.375 88.029C290.796 88.682 300.504 88.682 300.504 88.682C300.504 88.682 310.212 88.682 312.633 88.029C313.968 87.6697 315.02 86.6109 315.377 85.2666C316.026 82.8299 316.026 77.7459 316.026 77.7459C316.026 77.7459 316.026 72.6619 315.377 70.2252Z" fill="#FF0000"/>
            <path id="Vector_9" d="M297.329 82.3617L305.442 77.746L297.329 73.13V82.3617Z" fill="white"/>
        </g>
        <g id="tiktok">
            <path id="Vector_10" fill-rule="evenodd" clip-rule="evenodd" d="M332.253 130.794C332.252 131.207 332.305 131.651 332.373 132.057H328.456V151.561C328.456 152.46 328.363 153.261 328.179 153.963C326.584 157.479 322.067 157.02 320.819 154.607C322.677 155.77 325.733 155.461 326.986 152.7C327.169 151.999 327.262 151.197 327.262 150.298V130.794H332.253ZM334.918 136.692C335.928 137.499 337.32 138.094 339.239 138.208V139.328C337.116 138.936 335.769 137.88 334.918 136.692V136.692ZM316.994 158.114C310.603 152.568 314.736 140.219 324.563 141.773V142.916C316.264 142.53 312.611 152.429 316.994 158.114Z" fill="#69FFC9"/>
            <path id="Vector_11" fill-rule="evenodd" clip-rule="evenodd" d="M333.447 132.057V132.082C333.449 132.534 333.581 139.064 340.434 139.471C340.434 143.064 340.435 142.407 340.436 142.314V144.516C339.916 144.546 335.924 144.256 333.44 142.04L333.432 151.862C333.493 156.31 331.018 160.671 326.382 161.55C325.794 161.662 325.232 161.728 324.611 161.728C323.861 161.728 323.025 161.63 321.952 161.395C310.644 158.013 314.401 141.241 325.755 143.036C325.755 148.451 325.759 143.035 325.759 148.451C321.068 147.761 319.499 151.662 320.745 154.456C321.88 157 326.55 157.551 328.179 153.963C328.363 153.261 328.456 152.46 328.456 151.561V132.057H333.447V132.057Z" fill="#010203"/>
            <path id="Vector_12" fill-rule="evenodd" clip-rule="evenodd" d="M333.447 132.057V132.082C333.447 132.348 333.495 134.705 334.918 136.692C333.203 135.32 332.591 133.337 332.373 132.057H333.447ZM340.436 144.516V142.314C340.435 142.407 340.434 143.064 340.434 139.471C340.011 139.446 339.613 139.397 339.239 139.328C339.239 143.471 339.244 138.567 339.244 143.253C338.728 143.285 334.732 142.995 332.246 140.777L332.239 150.601C332.299 155.047 329.823 159.408 325.188 160.287C323.89 160.533 322.72 160.561 320.759 160.133C319.236 159.677 317.988 158.978 316.994 158.114C318.11 159.56 319.742 160.734 321.952 161.395C323.025 161.63 323.861 161.728 324.611 161.728C325.232 161.728 325.794 161.662 326.383 161.55C331.018 160.671 333.493 156.31 333.432 151.862L333.44 142.04C335.925 144.256 339.916 144.546 340.436 144.516V144.516ZM324.563 142.916C324.95 142.933 325.348 142.972 325.756 143.036C325.756 148.451 325.759 143.035 325.759 148.451C321.068 147.761 319.499 151.662 320.745 154.456C320.768 154.507 320.793 154.558 320.819 154.607C320.261 154.258 319.813 153.779 319.552 153.193C318.307 150.399 319.874 146.497 324.564 147.187C324.564 142.225 324.563 146.354 324.563 142.916Z" fill="#FF0A80"/>
        </g>
        <g id="medium">
            <path id="Rectangle path" d="M397.812 84.5524H377.174V105.19H397.812V84.5524Z" fill="#12100E"/>
            <path id="Shape" fill-rule="evenodd" clip-rule="evenodd" d="M382.099 91.4544C382.117 91.2842 382.052 91.116 381.925 91.0014L380.63 89.442V89.209H384.65L387.756 96.0227L390.488 89.209H394.32V89.442L393.213 90.5032C393.117 90.5759 393.07 90.6954 393.09 90.8138V98.611C393.07 98.7293 393.117 98.8488 393.213 98.9216L394.294 99.9828V100.216H388.857V99.9828L389.976 98.8957C390.086 98.7857 390.086 98.7533 390.086 98.5851V92.2826L386.973 100.19H386.553L382.928 92.2826V97.5821C382.898 97.8049 382.972 98.0292 383.129 98.1904L384.585 99.9569V100.19H380.455V99.9569L381.912 98.1904C382.067 98.029 382.137 97.8032 382.099 97.5821V91.4544V91.4544Z" fill="white"/>
        </g>
        <g id="pinterest">
            <path id="Vector_13" d="M380.075 71.4159C388.359 71.4159 395.075 64.7002 395.075 56.4159C395.075 48.1316 388.359 41.4159 380.075 41.4159C371.791 41.4159 365.075 48.1316 365.075 56.4159C365.075 64.7002 371.791 71.4159 380.075 71.4159Z" fill="white"/>
            <path id="Vector_14" fill-rule="evenodd" clip-rule="evenodd" d="M380.075 41.4158C371.791 41.4158 365.075 48.1319 365.075 56.4159C365.075 62.7739 369.025 68.206 374.606 70.3912C374.47 69.206 374.359 67.3788 374.655 66.0825C374.927 64.9097 376.408 58.6257 376.408 58.6257C376.408 58.6257 375.964 57.7245 375.964 56.4035C375.964 54.3171 377.174 52.7615 378.68 52.7615C379.964 52.7615 380.581 53.7245 380.581 54.8726C380.581 56.1566 379.766 58.0825 379.334 59.8727C378.976 61.3665 380.087 62.5887 381.556 62.5887C384.223 62.5887 386.272 59.7739 386.272 55.7245C386.272 52.1319 383.692 49.6257 380.001 49.6257C375.729 49.6257 373.223 52.8233 373.223 56.1319C373.223 57.4159 373.717 58.7986 374.334 59.5517C374.458 59.6998 374.47 59.8356 374.433 59.9838C374.322 60.4529 374.063 61.4776 374.013 61.6875C373.951 61.9591 373.791 62.0208 373.507 61.885C371.63 61.0084 370.458 58.28 370.458 56.0702C370.458 51.3418 373.89 46.9961 380.371 46.9961C385.569 46.9961 389.618 50.6998 389.618 55.6628C389.618 60.8356 386.359 64.9961 381.84 64.9961C380.322 64.9961 378.89 64.206 378.408 63.2677C378.408 63.2677 377.655 66.1319 377.47 66.8356C377.137 68.1442 376.223 69.7739 375.606 70.7739C377.013 71.206 378.495 71.4406 380.05 71.4406C388.334 71.4406 395.05 64.7245 395.05 56.4405C395.075 48.1319 388.359 41.4158 380.075 41.4158V41.4158Z" fill="#E60019"/>
        </g>
        <g id="tumblr">
            <path id="Vector_15" d="M371.986 16.5351H362.78C361.097 16.5351 359.72 17.9127 359.72 19.5957V28.8016C359.72 30.4845 361.097 31.8622 362.78 31.8622H371.986C373.669 31.8622 375.047 30.4845 375.047 28.8016V19.5957C375.047 17.9127 373.669 16.5351 371.986 16.5351V16.5351Z" fill="black"/>
            <path id="Vector_16" d="M370.023 28.9722H368.408C366.954 28.9722 365.87 28.224 365.87 26.4339V23.5672H364.548V22.015C366.002 21.6373 366.611 20.3857 366.681 19.3019H368.191V21.7632H369.953V23.5672H368.191V26.0635C368.191 26.8116 368.569 27.0703 369.17 27.0703H370.023V28.9722V28.9722Z" fill="white"/>
        </g>
        <g id="reddit">
            <path id="Vector_17" d="M380.063 146.425C387.523 146.425 393.571 140.377 393.571 132.917C393.571 125.457 387.523 119.409 380.063 119.409C372.602 119.409 366.555 125.457 366.555 132.917C366.555 140.377 372.602 146.425 380.063 146.425Z" fill="#FF4500"/>
            <path id="Vector_18" fill-rule="evenodd" clip-rule="evenodd" d="M389.068 132.917C389.068 131.827 388.183 130.942 387.093 130.942C386.556 130.942 386.082 131.148 385.734 131.495C384.392 130.532 382.527 129.9 380.473 129.821L381.374 125.602L384.297 126.219C384.328 126.961 384.944 127.561 385.703 127.561C386.477 127.561 387.109 126.93 387.109 126.155C387.109 125.381 386.477 124.749 385.703 124.749C385.15 124.749 384.676 125.065 384.455 125.539L381.184 124.844C381.09 124.828 380.995 124.844 380.916 124.892C380.837 124.939 380.789 125.018 380.758 125.113L379.763 129.821C377.661 129.884 375.781 130.5 374.423 131.495C374.075 131.164 373.585 130.942 373.064 130.942C371.974 130.942 371.089 131.827 371.089 132.917C371.089 133.723 371.563 134.402 372.258 134.718C372.226 134.908 372.211 135.113 372.211 135.319C372.211 138.352 375.734 140.801 380.094 140.801C384.455 140.801 387.978 138.352 387.978 135.319C387.978 135.113 387.962 134.924 387.93 134.734C388.578 134.418 389.068 133.723 389.068 132.917V132.917ZM375.56 134.323C375.56 133.549 376.192 132.917 376.966 132.917C377.74 132.917 378.372 133.549 378.372 134.323C378.372 135.097 377.74 135.729 376.966 135.729C376.192 135.729 375.56 135.097 375.56 134.323ZM383.412 138.036C382.448 139 380.616 139.063 380.078 139.063C379.541 139.063 377.693 138.984 376.745 138.036C376.603 137.894 376.603 137.657 376.745 137.515C376.887 137.372 377.124 137.372 377.266 137.515C377.867 138.115 379.162 138.336 380.094 138.336C381.026 138.336 382.306 138.115 382.922 137.515C383.064 137.372 383.301 137.372 383.444 137.515C383.554 137.673 383.554 137.894 383.412 138.036ZM383.159 135.729C382.385 135.729 381.753 135.097 381.753 134.323C381.753 133.549 382.385 132.917 383.159 132.917C383.933 132.917 384.565 133.549 384.565 134.323C384.565 135.097 383.933 135.729 383.159 135.729Z" fill="white"/>
        </g>
        <g id="flickr">
            <path id="Vector_19" fill-rule="evenodd" clip-rule="evenodd" d="M305.331 118.773H308.647V114.01C308.723 114.03 308.72 114.068 308.753 114.134L310.328 116.968C310.387 117.072 310.428 117.163 310.489 117.266L311.24 118.614C311.272 118.675 311.29 118.716 311.328 118.773H315.332L312.644 114.864C312.57 114.758 311.748 113.583 311.752 113.552C311.799 113.461 311.885 113.361 311.951 113.274L315.068 109.124H311.434L309.709 111.668C309.649 111.758 309.598 111.826 309.536 111.918C309.473 112.013 309.425 112.09 309.36 112.183L308.716 113.127C308.691 113.159 308.695 113.168 308.647 113.181V104.891H305.331V118.773Z" fill="#0062DB"/>
            <path id="Vector_20" fill-rule="evenodd" clip-rule="evenodd" d="M279.49 108.278V109.124H277.479V111.47H279.419V118.773H282.753V111.47H285.099V109.124H282.753C282.753 108.555 282.695 107.849 283.02 107.415C283.291 107.053 283.588 107.008 284.058 107.008C284.229 107.008 284.389 107.024 284.545 107.05C284.62 107.063 284.699 107.079 284.764 107.095C284.84 107.115 284.889 107.147 284.976 107.149C284.976 106.858 285.175 104.971 285.171 104.907C285.167 104.82 285.152 104.849 284.98 104.816C284.508 104.725 283.983 104.667 283.453 104.662H283.3C282.512 104.669 281.723 104.798 281.089 105.114C279.928 105.693 279.49 106.97 279.49 108.278Z" fill="#0062DB"/>
            <path id="Vector_21" fill-rule="evenodd" clip-rule="evenodd" d="M301.239 119.002C301.937 119.002 303 118.874 303.657 118.669C303.734 118.645 303.899 118.585 303.973 118.579C303.973 118.373 303.954 118.188 303.955 117.961C303.956 117.832 303.937 117.777 303.937 117.662C303.937 117.556 303.937 117.45 303.938 117.344C303.938 117.216 303.919 117.168 303.919 117.045C303.92 116.938 303.92 116.832 303.92 116.726C303.921 116.603 303.901 116.555 303.902 116.427C303.903 116.315 303.902 116.203 303.902 116.092C303.813 116.099 303.32 116.411 302.4 116.512C301.297 116.632 300.287 116.367 299.623 115.52C299.05 114.788 298.99 113.743 299.318 112.884C299.455 112.525 299.576 112.388 299.79 112.12C299.837 112.061 299.881 112.023 299.944 111.974C300.15 111.814 300.208 111.737 300.504 111.6C301.226 111.263 302.112 111.32 302.858 111.527C303.142 111.606 303.415 111.766 303.655 111.893C303.655 111.811 303.679 111.668 303.687 111.591L303.902 109.442C303.347 109.148 302.639 109.013 302.028 108.935C301.67 108.889 301.004 108.891 300.654 108.927C300.253 108.97 299.889 108.999 299.512 109.108C298.613 109.369 297.925 109.639 297.213 110.302C297.127 110.381 297.077 110.397 296.958 110.54L296.801 110.719C296.141 111.563 295.88 112.175 295.725 113.294L295.682 113.922L295.718 114.539C295.738 115.005 295.95 115.734 296.129 116.121C296.377 116.656 296.735 117.168 297.168 117.569C297.209 117.606 297.225 117.611 297.265 117.648C297.455 117.825 297.803 118.076 298.034 118.202C298.46 118.434 298.501 118.449 298.953 118.624C299.591 118.871 300.547 119.002 301.239 119.002V119.002Z" fill="#0062DB"/>
            <path id="Vector_22" fill-rule="evenodd" clip-rule="evenodd" d="M286.404 118.773H289.738V104.891H286.404V118.773Z" fill="#0062DB"/>
            <path id="Vector_23" fill-rule="evenodd" clip-rule="evenodd" d="M319.354 110.906L319.319 109.124H316.338C316.297 109.124 316.285 109.137 316.285 109.177V118.773H319.601V115.122C319.601 114.64 319.617 114.162 319.694 113.75C319.93 112.486 320.709 111.682 322.07 111.682C322.326 111.682 322.64 111.697 322.892 111.742C322.986 111.759 323.051 111.788 323.146 111.788L323.164 111.276C323.171 111.13 323.199 110.929 323.199 110.747L323.305 109.018C322.813 108.904 322.12 108.862 321.624 108.942C321.17 109.016 320.71 109.207 320.365 109.5C320.249 109.599 320.16 109.681 320.055 109.79L319.918 109.953C319.747 110.172 319.643 110.327 319.507 110.582C319.458 110.673 319.362 110.803 319.354 110.906V110.906Z" fill="#FE0084"/>
            <path id="Vector_24" fill-rule="evenodd" clip-rule="evenodd" d="M291.343 118.773H294.659V109.124H291.343V118.773Z" fill="#0062DB"/>
            <path id="Vector_25" fill-rule="evenodd" clip-rule="evenodd" d="M291.343 107.554H294.659V105.103H291.343V107.554Z" fill="#0062DB"/>
        </g>
        <g id="tiktok1">
            <path id="Vector_26" fill-rule="evenodd" clip-rule="evenodd" d="M165.388 82.1727C165.387 82.5069 165.43 82.8659 165.485 83.1936H162.319V98.9561C162.319 99.6827 162.245 100.33 162.096 100.897C160.806 103.739 157.156 103.368 156.147 101.418C157.649 102.358 160.118 102.108 161.132 99.8764C161.28 99.3101 161.354 98.6617 161.354 97.9352V82.1727H165.388ZM167.542 86.9395C168.358 87.5916 169.483 88.0724 171.034 88.1643V89.0699C169.318 88.7529 168.23 87.8998 167.542 86.9395V86.9395ZM153.056 104.252C147.891 99.7696 151.232 89.7899 159.173 91.0456V91.9698C152.466 91.6579 149.514 99.6578 153.056 104.252Z" fill="#69FFC9"/>
            <path id="Vector_27" fill-rule="evenodd" clip-rule="evenodd" d="M166.353 83.1936V83.2138C166.354 83.5788 166.461 88.8561 171.999 89.1852C171.999 92.0893 172 91.5579 172.001 91.4829V93.2628C171.581 93.2871 168.355 93.0529 166.347 91.2617L166.341 99.1995C166.39 102.794 164.39 106.319 160.644 107.029C160.168 107.119 159.714 107.173 159.212 107.173C158.606 107.172 157.93 107.093 157.063 106.904C147.924 104.17 150.961 90.616 160.137 92.0665C160.137 96.4423 160.139 92.0653 160.139 96.4423C156.349 95.8846 155.081 99.038 156.088 101.296C157.005 103.352 160.779 103.797 162.096 100.897C162.245 100.33 162.319 99.6827 162.319 98.9561V83.1936H166.353V83.1936Z" fill="#010203"/>
            <path id="Vector_28" fill-rule="evenodd" clip-rule="evenodd" d="M166.353 83.1936V83.2138C166.353 83.4284 166.392 85.3339 167.542 86.9395C166.156 85.8306 165.661 84.2284 165.485 83.1936H166.353ZM172.001 93.2628V91.4829C172 91.5579 171.999 92.0893 171.999 89.1852C171.658 89.1652 171.336 89.1255 171.034 89.0699C171.034 92.4182 171.038 88.455 171.038 92.2416C170.621 92.2677 167.391 92.0331 165.382 90.2408L165.377 98.1799C165.425 101.773 163.425 105.298 159.679 106.008C158.629 106.207 157.684 106.229 156.099 105.884C154.868 105.515 153.86 104.95 153.056 104.252C153.958 105.421 155.277 106.37 157.063 106.904C157.93 107.093 158.606 107.172 159.212 107.173C159.714 107.173 160.168 107.119 160.644 107.029C164.39 106.319 166.39 102.794 166.341 99.1995L166.347 91.2617C168.355 93.0529 171.581 93.2871 172.001 93.2628V93.2628ZM159.173 91.9698C159.486 91.9835 159.808 92.0144 160.137 92.0665C160.137 96.4423 160.139 92.0653 160.139 96.4423C156.349 95.8846 155.081 99.038 156.088 101.296C156.106 101.337 156.127 101.378 156.147 101.418C155.697 101.136 155.334 100.748 155.123 100.275C154.117 98.0171 155.384 94.8637 159.174 95.4214C159.174 91.4109 159.173 94.7481 159.173 91.9698Z" fill="#FF0A80"/>
        </g>
        <g id="facebook1">
            <path id="Vector_29" d="M173.791 94.7487C173.791 87.8451 168.195 82.2487 161.291 82.2487C154.388 82.2487 148.791 87.8451 148.791 94.7487C148.791 100.988 153.362 106.159 159.338 107.097V98.362H156.164V94.7487H159.338V91.9948C159.338 88.862 161.204 87.1315 164.059 87.1315C165.427 87.1315 166.857 87.3756 166.857 87.3756V90.4518H165.281C163.728 90.4518 163.244 91.4154 163.244 92.4039V94.7487H166.711L166.157 98.362H163.244V107.097C169.22 106.159 173.791 100.988 173.791 94.7487V94.7487Z" fill="#1877F2"/>
            <path id="Vector_30" d="M166.157 98.362L166.711 94.7487H163.244V92.4039C163.244 91.4154 163.728 90.4518 165.281 90.4518H166.857V87.3756C166.857 87.3756 165.427 87.1315 164.059 87.1315C161.204 87.1315 159.338 88.862 159.338 91.9948V94.7487H156.164V98.362H159.338V107.097C159.974 107.197 160.627 107.249 161.291 107.249C161.956 107.249 162.608 107.197 163.244 107.097V98.362H166.157V98.362Z" fill="white"/>
        </g>
        <g id="youtube1">
            <path id="Vector_31" d="M173.269 88.6164C172.981 87.5338 172.134 86.6812 171.058 86.3918C169.109 85.8659 161.291 85.8659 161.291 85.8659C161.291 85.8659 153.473 85.8659 151.524 86.3918C150.448 86.6812 149.601 87.5338 149.313 88.6164C148.791 90.5786 148.791 94.6728 148.791 94.6728C148.791 94.6728 148.791 98.7669 149.313 100.729C149.601 101.812 150.448 102.664 151.524 102.954C153.473 103.48 161.291 103.48 161.291 103.48C161.291 103.48 169.109 103.48 171.058 102.954C172.134 102.664 172.981 101.812 173.269 100.729C173.791 98.7669 173.791 94.6728 173.791 94.6728C173.791 94.6728 173.791 90.5786 173.269 88.6164Z" fill="#FF0000"/>
            <path id="Vector_32" d="M158.734 98.3899L165.268 94.6729L158.734 90.9556V98.3899Z" fill="white"/>
        </g>
        <g id="instagram1">
            <path id="Vector_33" d="M161.291 82.1728C157.896 82.1728 157.471 82.1872 156.137 82.248C154.807 82.3087 153.898 82.52 153.103 82.829C152.281 83.1485 151.584 83.5759 150.889 84.2708C150.194 84.9657 149.767 85.6628 149.447 86.4848C149.138 87.2799 148.927 88.1886 148.866 89.5191C148.805 90.8523 148.791 91.278 148.791 94.6728C148.791 98.0676 148.805 98.4933 148.866 99.8265C148.927 101.157 149.138 102.066 149.447 102.861C149.767 103.683 150.194 104.38 150.889 105.075C151.584 105.77 152.281 106.197 153.103 106.517C153.898 106.826 154.807 107.037 156.137 107.098C157.471 107.158 157.896 107.173 161.291 107.173C164.686 107.173 165.112 107.158 166.445 107.098C167.775 107.037 168.684 106.826 169.479 106.517C170.301 106.197 170.998 105.77 171.693 105.075C172.388 104.38 172.815 103.683 173.135 102.861C173.444 102.066 173.655 101.157 173.716 99.8265C173.777 98.4933 173.791 98.0676 173.791 94.6728C173.791 91.278 173.777 90.8523 173.716 89.5191C173.655 88.1886 173.444 87.2799 173.135 86.4848C172.815 85.6628 172.388 84.9657 171.693 84.2708C170.998 83.5759 170.301 83.1485 169.479 82.829C168.684 82.52 167.775 82.3087 166.445 82.248C165.112 82.1872 164.686 82.1728 161.291 82.1728ZM161.291 84.425C164.629 84.425 165.024 84.4378 166.342 84.4979C167.561 84.5535 168.223 84.7572 168.663 84.9283C169.247 85.1551 169.663 85.426 170.1 85.8633C170.538 86.3008 170.809 86.7172 171.036 87.3007C171.207 87.7411 171.41 88.403 171.466 89.6217C171.526 90.9398 171.539 91.3352 171.539 94.6728C171.539 98.0104 171.526 98.4058 171.466 99.7239C171.41 100.943 171.207 101.605 171.036 102.045C170.809 102.628 170.538 103.045 170.1 103.482C169.663 103.92 169.247 104.191 168.663 104.417C168.223 104.588 167.561 104.792 166.342 104.848C165.024 104.908 164.629 104.921 161.291 104.921C157.953 104.921 157.558 104.908 156.24 104.848C155.021 104.792 154.359 104.588 153.919 104.417C153.335 104.191 152.919 103.92 152.482 103.482C152.044 103.045 151.773 102.628 151.547 102.045C151.375 101.605 151.172 100.943 151.116 99.7239C151.056 98.4058 151.043 98.0104 151.043 94.6728C151.043 91.3352 151.056 90.9398 151.116 89.6217C151.172 88.403 151.375 87.7411 151.547 87.3007C151.773 86.7172 152.044 86.3008 152.482 85.8634C152.919 85.426 153.335 85.1551 153.919 84.9283C154.359 84.7572 155.021 84.5535 156.24 84.4979C157.558 84.4378 157.953 84.425 161.291 84.425V84.425Z" fill="#060808"/>
            <path id="Vector_34" d="M161.291 98.8395C158.99 98.8395 157.124 96.974 157.124 94.6728C157.124 92.3716 158.99 90.5061 161.291 90.5061C163.592 90.5061 165.458 92.3716 165.458 94.6728C165.458 96.974 163.592 98.8395 161.291 98.8395ZM161.291 88.2539C157.746 88.2539 154.872 91.1277 154.872 94.6728C154.872 98.2179 157.746 101.092 161.291 101.092C164.836 101.092 167.71 98.2179 167.71 94.6728C167.71 91.1277 164.836 88.2539 161.291 88.2539V88.2539Z" fill="#060808"/>
            <path id="Vector_35" d="M169.464 88.0003C169.464 88.8287 168.792 89.5003 167.964 89.5003C167.135 89.5003 166.464 88.8287 166.464 88.0003C166.464 87.1718 167.135 86.5003 167.964 86.5003C168.792 86.5003 169.464 87.1718 169.464 88.0003Z" fill="#060808"/>
        </g>
        <g id="twitter1">
            <path id="Vector_36" d="M161.291 107.173C168.195 107.173 173.791 101.576 173.791 94.6728C173.791 87.7692 168.195 82.1728 161.291 82.1728C154.387 82.1728 148.791 87.7692 148.791 94.6728C148.791 101.576 154.387 107.173 161.291 107.173Z" fill="#1DA1F2"/>
            <path id="Vector_37" fill-rule="evenodd" clip-rule="evenodd" d="M159.003 101.267C164.547 101.267 167.578 96.6728 167.578 92.6916C167.578 92.5603 167.579 92.4291 167.572 92.3041C168.16 91.8791 168.672 91.3478 169.078 90.7416C168.541 90.9791 167.96 91.1416 167.347 91.2166C167.972 90.8416 168.447 90.2541 168.672 89.5478C168.091 89.8916 167.447 90.1416 166.76 90.2791C166.21 89.6916 165.429 89.3291 164.56 89.3291C162.897 89.3291 161.547 90.6791 161.547 92.3416C161.547 92.5791 161.572 92.8103 161.628 93.0291C159.122 92.9041 156.903 91.7041 155.416 89.8791C155.16 90.3228 155.01 90.8416 155.01 91.3916C155.01 92.4353 155.541 93.3603 156.353 93.8978C155.86 93.8853 155.397 93.7478 154.991 93.5228C154.991 93.5353 154.991 93.5478 154.991 93.5603C154.991 95.0228 156.029 96.2353 157.41 96.5165C157.16 96.5853 156.891 96.6228 156.616 96.6228C156.422 96.6228 156.235 96.604 156.047 96.5665C156.429 97.7665 157.541 98.6353 158.86 98.6603C157.829 99.4665 156.528 99.9478 155.116 99.9478C154.872 99.9478 154.635 99.9353 154.397 99.904C155.716 100.767 157.303 101.267 159.003 101.267V101.267Z" fill="white"/>
        </g>
        <path id="b" fill-rule="evenodd" clip-rule="evenodd" d="M201.988 107.673C219.109 107.673 232.988 121.552 232.988 138.673C232.988 155.794 219.109 169.673 201.988 169.673H195.988C178.914 169.673 164.988 155.747 164.988 138.673V109.792H146.291V140V185.396H193.958C214.631 185.396 227.791 184.68 233.476 183.289C241.626 181.261 248.702 175.974 254.666 167.386C260.669 158.839 263.651 148.343 263.651 135.9C263.651 125.643 261.305 116.976 256.653 109.82C252.002 102.664 245.561 97.6146 237.332 94.6727C243.136 91.4922 247.867 86.6022 251.525 79.9232C255.143 73.284 256.972 65.8496 256.972 57.6201C256.972 48.675 254.825 40.6841 250.531 33.6075C246.277 26.531 241.029 21.6012 234.788 18.8183C228.546 15.9956 217.772 14.6042 202.466 14.6042H146.291V60V79.2402H164.988V55.1051C164.988 40.4709 176.924 28.5351 191.558 28.5351H201.988C216.671 28.5351 228.573 40.4376 228.573 55.1201C228.573 69.8026 216.671 81.673 201.988 81.673H146.291L146.284 107.67L201.988 107.673V107.673Z" fill="black"/>
        <path id="bd" fill-rule="evenodd" clip-rule="evenodd" d="M185.692 123.98C185.841 123.807 185.889 123.629 185.872 123.396C185.855 123.163 185.753 122.963 185.571 122.811C185.355 122.632 185.152 122.431 184.965 122.208C184.651 121.833 184.404 121.424 184.224 120.996C184.177 120.883 184.136 120.788 184.087 120.676C183.677 119.739 183.441 118.75 183.375 117.755L184.621 116.709C185.59 116.947 186.523 117.351 187.374 117.918C187.476 117.985 187.563 118.042 187.665 118.108C188.056 118.36 188.416 118.674 188.731 119.048C188.918 119.271 189.08 119.506 189.219 119.75C189.337 119.956 189.519 120.091 189.744 120.148C189.968 120.205 190.153 120.186 190.347 120.073C190.779 119.803 191.206 119.556 191.654 119.318C191.864 119.207 192.003 119.034 192.068 118.806C192.133 118.578 192.105 118.358 191.985 118.153C191.844 117.911 191.722 117.652 191.622 117.379C191.455 116.92 191.363 116.451 191.341 115.987C191.335 115.865 191.329 115.761 191.321 115.639C191.256 114.619 191.373 113.608 191.651 112.651L193.18 112.094C194.009 112.649 194.748 113.348 195.353 114.172C195.426 114.27 195.488 114.353 195.562 114.451C195.843 114.82 196.074 115.238 196.241 115.698C196.341 115.971 196.414 116.247 196.461 116.524C196.501 116.758 196.621 116.944 196.817 117.078C197.013 117.211 197.214 117.257 197.446 117.207C197.943 117.102 198.423 117.017 198.928 116.946C199.149 116.908 199.326 116.799 199.462 116.611C199.598 116.423 199.65 116.203 199.607 115.969C199.557 115.693 199.531 115.409 199.531 115.118C199.531 114.629 199.605 114.157 199.743 113.714C199.779 113.597 199.809 113.497 199.844 113.38C200.131 112.399 200.586 111.489 201.176 110.685H202.802C203.392 111.489 203.847 112.399 204.134 113.38C204.169 113.497 204.199 113.596 204.235 113.713C204.373 114.157 204.447 114.629 204.447 115.118C204.447 115.409 204.42 115.693 204.37 115.97C204.328 116.203 204.379 116.422 204.516 116.611C204.652 116.8 204.802 116.905 205.026 116.942C205.531 117.013 206.032 117.102 206.529 117.207C206.761 117.256 206.963 117.211 207.159 117.078C207.355 116.944 207.475 116.758 207.515 116.524C207.563 116.248 207.635 115.971 207.735 115.698C207.902 115.238 208.133 114.82 208.414 114.45C208.488 114.353 208.551 114.27 208.623 114.171C209.229 113.348 209.967 112.649 210.797 112.094L212.325 112.651C212.604 113.609 212.72 114.619 212.655 115.639C212.647 115.761 212.641 115.865 212.635 115.987C212.613 116.451 212.521 116.92 212.354 117.379C212.255 117.652 212.133 117.911 211.991 118.153C211.871 118.358 211.844 118.578 211.908 118.806C211.973 119.034 212.097 119.198 212.307 119.31C212.755 119.548 213.151 119.777 213.584 120.047C213.785 120.172 214.004 120.207 214.234 120.149C214.464 120.091 214.641 119.957 214.758 119.751C214.897 119.507 215.06 119.272 215.247 119.05C215.561 118.675 215.921 118.361 216.312 118.11C216.415 118.044 216.502 117.987 216.603 117.919C217.454 117.352 218.388 116.948 219.357 116.711L220.602 117.756C220.537 118.751 220.301 119.74 219.89 120.677C219.841 120.789 219.8 120.884 219.753 120.997C219.573 121.426 219.327 121.835 219.012 122.209C218.826 122.432 218.622 122.633 218.407 122.813C218.224 122.964 218.122 123.17 218.105 123.398C218.089 123.625 218.149 123.812 218.284 123.979C218.625 124.358 218.952 124.748 219.265 125.148C219.406 125.309 219.604 125.431 219.831 125.454C220.057 125.477 220.278 125.412 220.459 125.259C220.673 125.077 220.907 124.912 221.158 124.767C221.582 124.522 222.028 124.351 222.481 124.248C222.6 124.221 222.702 124.197 222.82 124.169C223.813 123.927 224.828 123.867 225.82 123.975L226.633 125.383C226.231 126.296 225.671 127.145 224.965 127.885C224.881 127.973 224.81 128.049 224.727 128.138C224.411 128.479 224.04 128.78 223.616 129.024C223.365 129.17 223.105 129.289 222.841 129.384C222.618 129.464 222.455 129.614 222.358 129.831C222.26 130.047 222.256 130.269 222.345 130.489C222.536 130.96 222.686 131.373 222.844 131.858C222.917 132.084 223.063 132.251 223.276 132.354C223.489 132.458 223.711 132.468 223.933 132.386C224.197 132.289 224.472 132.213 224.759 132.163C225.24 132.078 225.718 132.069 226.179 132.128C226.3 132.143 226.403 132.156 226.524 132.169C227.541 132.282 228.515 132.572 229.41 133.013L229.693 134.615C229.002 135.335 228.186 135.941 227.27 136.395C227.16 136.449 227.067 136.496 226.959 136.551C226.546 136.764 226.094 136.919 225.612 137.004C225.326 137.055 225.041 137.078 224.76 137.077C224.523 137.075 224.312 137.168 224.153 137.331C223.995 137.495 223.921 137.677 223.916 137.892C223.934 138.401 223.934 138.91 223.916 139.418C223.921 139.632 223.994 139.852 224.153 140.015C224.312 140.179 224.523 140.271 224.76 140.27C225.041 140.269 225.326 140.292 225.612 140.343C226.094 140.428 226.546 140.583 226.959 140.796C227.067 140.851 227.16 140.898 227.27 140.953C228.186 141.406 229.002 142.012 229.692 142.732L229.41 144.334C228.515 144.775 227.54 145.065 226.524 145.178C226.403 145.191 226.3 145.204 226.178 145.219C225.718 145.278 225.24 145.269 224.758 145.184C224.472 145.133 224.196 145.058 223.933 144.961C223.711 144.879 223.489 144.889 223.276 144.993C223.062 145.096 222.917 145.263 222.843 145.489C222.686 145.972 222.518 146.434 222.327 146.907C222.238 147.127 222.26 147.3 222.357 147.516C222.454 147.733 222.617 147.883 222.84 147.963C223.104 148.058 223.364 148.177 223.616 148.323C224.039 148.567 224.411 148.867 224.726 149.208C224.809 149.298 224.88 149.374 224.965 149.463C225.671 150.202 226.231 151.051 226.633 151.964L225.819 153.372C224.828 153.48 223.813 153.42 222.819 153.178C222.701 153.15 222.6 153.126 222.481 153.099C222.027 152.996 221.581 152.824 221.158 152.58C220.906 152.434 220.673 152.27 220.459 152.088C220.278 151.935 220.066 151.869 219.83 151.893C219.594 151.917 219.435 151.983 219.289 152.17C218.975 152.571 218.647 152.961 218.307 153.339C218.159 153.511 218.088 153.716 218.105 153.949C218.122 154.182 218.223 154.383 218.406 154.534C218.622 154.713 218.825 154.915 219.012 155.137C219.326 155.512 219.573 155.921 219.752 156.35C219.8 156.462 219.841 156.558 219.89 156.67C220.3 157.606 220.536 158.595 220.602 159.591L219.356 160.636C218.387 160.399 217.453 159.994 216.603 159.428C216.501 159.36 216.414 159.303 216.311 159.237C215.92 158.985 215.56 158.672 215.246 158.297C215.059 158.074 214.896 157.84 214.757 157.596C214.64 157.39 214.463 157.256 214.233 157.198C214.013 157.142 213.802 157.171 213.608 157.284C213.178 157.554 212.771 157.789 212.321 158.028C212.112 158.14 211.972 158.312 211.907 158.54C211.843 158.769 211.871 158.989 211.99 159.193C212.132 159.436 212.254 159.694 212.353 159.967C212.52 160.427 212.612 160.895 212.634 161.36C212.64 161.481 212.646 161.585 212.654 161.707C212.719 162.727 212.603 163.738 212.324 164.696L210.795 165.252C209.966 164.697 209.228 163.999 208.622 163.175C208.55 163.077 208.487 162.993 208.413 162.896C208.132 162.526 207.901 162.108 207.734 161.648C207.634 161.375 207.562 161.099 207.514 160.822C207.474 160.588 207.354 160.402 207.158 160.269C206.962 160.135 206.744 160.093 206.512 160.142C206.014 160.248 205.565 160.327 205.063 160.398C204.841 160.436 204.651 160.546 204.515 160.735C204.379 160.923 204.327 161.143 204.369 161.377C204.42 161.653 204.446 161.937 204.446 162.228C204.446 162.717 204.371 163.189 204.234 163.633C204.198 163.75 204.168 163.849 204.133 163.966C203.846 164.947 203.391 165.857 202.801 166.661L201.175 166.661C200.585 165.857 200.13 164.947 199.843 163.966C199.808 163.849 199.778 163.749 199.742 163.632C199.604 163.189 199.53 162.717 199.53 162.228C199.53 161.937 199.556 161.653 199.606 161.377C199.649 161.143 199.6 160.927 199.461 160.735C199.326 160.548 199.144 160.435 198.919 160.398C198.416 160.328 197.961 160.248 197.462 160.142C197.23 160.093 197.012 160.135 196.816 160.268C196.62 160.401 196.5 160.588 196.46 160.822C196.413 161.098 196.34 161.375 196.241 161.648C196.073 162.107 195.842 162.525 195.561 162.895C195.487 162.992 195.425 163.076 195.352 163.174C194.747 163.998 194.008 164.697 193.179 165.251L191.65 164.695C191.372 163.737 191.255 162.727 191.321 161.707C191.328 161.585 191.334 161.481 191.34 161.359C191.362 160.895 191.454 160.426 191.621 159.966C191.721 159.693 191.843 159.435 191.984 159.192C192.104 158.988 192.132 158.768 192.067 158.54C192.003 158.311 191.91 158.166 191.701 158.054C191.251 157.815 190.81 157.56 190.379 157.291C190.178 157.166 189.973 157.139 189.743 157.197C189.513 157.256 189.336 157.39 189.219 157.596C189.08 157.84 188.917 158.074 188.73 158.297C188.416 158.672 188.055 158.986 187.664 159.237C187.562 159.303 187.475 159.36 187.373 159.428C186.522 159.994 185.589 160.398 184.62 160.636L183.374 159.59C183.44 158.595 183.676 157.606 184.087 156.67C184.136 156.558 184.176 156.462 184.224 156.349C184.403 155.921 184.65 155.512 184.964 155.137C185.151 154.915 185.354 154.714 185.57 154.534C185.753 154.383 185.855 154.176 185.871 153.949C185.888 153.721 185.803 153.507 185.669 153.339C185.329 152.962 185.002 152.572 184.688 152.17C184.546 152.009 184.372 151.915 184.145 151.892C183.918 151.868 183.697 151.933 183.516 152.087C183.302 152.268 183.069 152.433 182.817 152.578C182.394 152.823 181.948 152.995 181.495 153.097C181.376 153.124 181.274 153.148 181.156 153.177C180.162 153.418 179.147 153.479 178.155 153.37L177.342 151.962C177.744 151.049 178.304 150.2 179.01 149.461C179.095 149.373 179.166 149.297 179.249 149.207C179.564 148.866 179.936 148.566 180.359 148.321C180.611 148.176 180.871 148.056 181.135 147.962C181.358 147.882 181.521 147.731 181.618 147.515C181.715 147.298 181.738 147.127 181.649 146.908C181.458 146.435 181.284 145.956 181.127 145.473C181.054 145.248 180.914 145.096 180.7 144.992C180.487 144.889 180.265 144.878 180.043 144.961C179.78 145.058 179.504 145.133 179.218 145.184C178.736 145.269 178.258 145.277 177.798 145.219C177.676 145.203 177.573 145.191 177.451 145.178C176.435 145.065 175.461 144.775 174.566 144.334L174.284 142.732C174.974 142.012 175.791 141.406 176.707 140.952C176.816 140.898 176.909 140.851 177.018 140.795C177.431 140.583 177.882 140.427 178.364 140.343C178.65 140.292 178.935 140.269 179.216 140.27C179.453 140.271 179.658 140.186 179.823 140.015C179.975 139.858 180.055 139.669 180.06 139.455C180.042 138.947 180.042 138.402 180.059 137.892C180.055 137.677 179.982 137.493 179.823 137.33C179.664 137.166 179.453 137.074 179.216 137.075C178.935 137.077 178.65 137.053 178.364 137.002C177.882 136.917 177.431 136.762 177.018 136.55C176.909 136.494 176.816 136.447 176.707 136.393C175.791 135.939 174.974 135.333 174.284 134.613L174.566 133.011C175.461 132.57 176.436 132.28 177.452 132.167C177.573 132.154 177.676 132.141 177.798 132.126C178.259 132.067 178.736 132.076 179.218 132.161C179.504 132.212 179.78 132.287 180.043 132.385C180.266 132.467 180.487 132.456 180.701 132.353C180.914 132.249 181.041 132.133 181.115 131.908C181.272 131.423 181.441 130.96 181.631 130.489C181.72 130.269 181.716 130.047 181.619 129.83C181.521 129.614 181.359 129.464 181.135 129.384C180.871 129.289 180.612 129.169 180.36 129.024C179.936 128.78 179.565 128.479 179.249 128.138C179.166 128.048 179.095 127.972 179.011 127.884C178.305 127.145 177.745 126.296 177.343 125.383L178.156 123.974C179.148 123.866 180.163 123.927 181.156 124.168C181.275 124.197 181.377 124.221 181.496 124.248C181.949 124.351 182.394 124.522 182.818 124.767C183.069 124.912 183.303 125.077 183.517 125.259C183.698 125.412 183.91 125.478 184.146 125.454C184.382 125.43 184.565 125.336 184.711 125.149C185.024 124.748 185.351 124.358 185.692 123.98V123.98ZM199.557 124.886C207.171 123.543 214.433 128.627 215.775 136.242C217.118 143.857 212.034 151.118 204.419 152.46C196.805 153.803 189.543 148.719 188.201 141.104C186.858 133.49 191.942 126.228 199.557 124.886V124.886Z" fill="black" stroke="black" stroke-width="0.2" stroke-miterlimit="22.9256"/>
        <path id="kd" fill-rule="evenodd" clip-rule="evenodd" d="M193.17 38.5079C193.34 38.4121 193.431 38.2835 193.486 38.091C193.54 37.8984 193.517 37.7069 193.415 37.5314C193.293 37.3235 193.189 37.1021 193.104 36.868C192.96 36.4739 192.882 36.0723 192.863 35.6745C192.858 35.5699 192.853 35.481 192.846 35.3765C192.79 34.502 192.89 33.6359 193.129 32.8149L194.439 32.3382C195.15 32.8136 195.783 33.4127 196.302 34.1185C196.364 34.2029 196.417 34.2743 196.481 34.3576C196.722 34.6747 196.92 35.0331 197.063 35.4271C197.148 35.6611 197.211 35.8981 197.251 36.1352C197.285 36.3355 197.392 36.4979 197.556 36.6096C197.721 36.7213 197.875 36.76 198.064 36.7263C198.492 36.6355 198.908 36.5619 199.339 36.5013C199.54 36.473 199.703 36.375 199.822 36.2101C199.941 36.0453 199.983 35.8599 199.947 35.66C199.904 35.4232 199.881 35.1793 199.881 34.9302C199.881 34.5109 199.945 34.1064 200.063 33.726C200.094 33.626 200.12 33.5406 200.149 33.4401C200.396 32.5993 200.786 31.8199 201.291 31.1301H202.685C203.19 31.8199 203.58 32.5995 203.827 33.4405C203.856 33.5409 203.882 33.6263 203.913 33.7263C204.031 34.1067 204.095 34.5109 204.095 34.9302C204.095 35.1793 204.072 35.4232 204.029 35.66C203.993 35.8599 204.035 36.0453 204.154 36.2101C204.273 36.375 204.421 36.4708 204.623 36.4992C205.054 36.5597 205.465 36.6325 205.893 36.7232C206.082 36.7573 206.256 36.7216 206.421 36.6099C206.586 36.4982 206.692 36.3359 206.726 36.1355C206.767 35.8984 206.829 35.6615 206.914 35.4275C207.058 35.0335 207.256 34.6754 207.497 34.3584C207.56 34.275 207.614 34.2035 207.676 34.1191C208.195 33.4132 208.828 32.8141 209.539 32.3387L210.849 32.8156C211.088 33.6367 211.188 34.5025 211.132 35.377C211.125 35.4813 211.12 35.5703 211.115 35.6749C211.096 36.0728 211.017 36.4747 210.874 36.8687C210.789 37.1029 210.684 37.3243 210.563 37.532C210.46 37.7075 210.437 37.8993 210.492 38.0917C210.546 38.284 210.636 38.4119 210.806 38.5076C211.191 38.7128 211.569 38.9311 211.938 39.1617C212.111 39.2694 212.287 39.2918 212.484 39.242C212.681 39.1923 212.832 39.0772 212.933 38.9007C213.052 38.6918 213.192 38.4904 213.352 38.2996C213.622 37.9784 213.93 37.7095 214.265 37.494C214.353 37.4373 214.428 37.3884 214.515 37.3304C215.244 36.8447 216.044 36.4983 216.875 36.2947L217.943 37.1908C217.886 38.044 217.684 38.892 217.332 39.6947C217.29 39.7905 217.255 39.8725 217.215 39.9691C217.061 40.3362 216.849 40.6867 216.58 41.008C216.42 41.1988 216.246 41.3712 216.061 41.5249C215.904 41.6548 215.817 41.8238 215.802 42.0265C215.788 42.2292 215.84 42.3981 215.976 42.5493C216.267 42.8728 216.519 43.1727 216.788 43.517C216.913 43.6771 217.08 43.7693 217.282 43.79C217.484 43.8106 217.666 43.7543 217.821 43.6228C218.004 43.4673 218.204 43.3258 218.42 43.2012C218.783 42.9917 219.165 42.8446 219.554 42.7567C219.656 42.7336 219.742 42.7132 219.844 42.6885C220.696 42.4815 221.566 42.4295 222.416 42.5223L223.113 43.7296C222.768 44.512 222.288 45.2395 221.683 45.8732C221.611 45.9491 221.55 46.014 221.479 46.091C221.208 46.3834 220.89 46.6408 220.527 46.8504C220.311 46.9749 220.089 47.0775 219.862 47.1585C219.671 47.227 219.528 47.3632 219.448 47.5416C219.368 47.7199 219.362 47.8879 219.421 48.0621C219.585 48.4673 219.734 48.8774 219.868 49.2914C219.935 49.4625 220.059 49.6184 220.235 49.7035C220.411 49.7886 220.607 49.8012 220.798 49.7307C221.024 49.6473 221.26 49.5828 221.505 49.5396C221.918 49.4667 222.328 49.4592 222.723 49.5094C222.827 49.5226 222.915 49.5332 223.019 49.5447C223.89 49.6414 224.725 49.8901 225.493 50.268L225.735 51.6409C225.143 52.2583 224.443 52.7779 223.657 53.1666C223.564 53.213 223.484 53.2532 223.391 53.3012C223.037 53.4833 222.65 53.6163 222.237 53.6891C221.992 53.7324 221.748 53.7525 221.507 53.7512C221.304 53.7502 221.129 53.8238 220.987 53.9696C220.845 54.1154 220.777 54.2928 220.784 54.4961C220.799 54.9312 220.799 55.3084 220.784 55.745C220.777 55.9483 220.845 56.1257 220.987 56.2716C221.128 56.4173 221.304 56.4909 221.507 56.4899C221.748 56.4886 221.992 56.5089 222.237 56.5521C222.65 56.6249 223.037 56.7578 223.391 56.9401C223.484 56.988 223.564 57.0283 223.658 57.0748C224.443 57.4635 225.143 57.9831 225.735 58.6004L225.492 59.9734C224.725 60.3512 223.89 60.5999 223.019 60.6965C222.915 60.708 222.827 60.7186 222.723 60.7318C222.328 60.782 221.918 60.7744 221.505 60.7016C221.26 60.6583 221.023 60.5938 220.798 60.5104C220.607 60.4398 220.41 60.4524 220.234 60.5376C220.059 60.6227 219.946 60.748 219.879 60.9192C219.744 61.3347 219.595 61.7448 219.432 62.1484C219.373 62.3228 219.367 62.5211 219.448 62.6995C219.528 62.8778 219.67 63.014 219.862 63.0825C220.088 63.1636 220.311 63.2661 220.526 63.3907C220.889 63.6003 221.208 63.8577 221.478 64.1502C221.549 64.2271 221.611 64.292 221.683 64.3677C222.288 65.0016 222.768 65.729 223.112 66.5117L222.415 67.7189C221.565 67.8117 220.695 67.7596 219.844 67.5526C219.742 67.5279 219.655 67.5075 219.553 67.4844C219.165 67.3965 218.783 67.2494 218.42 67.0397C218.204 66.9152 218.004 66.7737 217.82 66.6181C217.665 66.4867 217.484 66.4304 217.282 66.4509C217.079 66.4716 216.913 66.5637 216.788 66.7239C216.52 67.067 216.248 67.39 215.956 67.7147C215.82 67.8659 215.787 68.0117 215.802 68.2145C215.817 68.4172 215.904 68.5862 216.06 68.716C216.245 68.8697 216.419 69.0421 216.579 69.2329C216.849 69.5541 217.06 69.9046 217.214 70.2719C217.254 70.3685 217.289 70.4506 217.331 70.5465C217.683 71.3492 217.886 72.1971 217.942 73.0501L216.874 73.9462C216.043 73.7425 215.244 73.3961 214.514 72.9104C214.427 72.8524 214.353 72.8036 214.265 72.7469C213.93 72.5314 213.621 72.2624 213.351 71.9412C213.191 71.7503 213.052 71.549 212.932 71.3401C212.832 71.1635 212.68 71.0485 212.483 70.9986C212.286 70.9489 212.138 70.9553 211.966 71.0629C211.595 71.2943 211.217 71.5125 210.833 71.7169C210.663 71.8125 210.545 71.9565 210.491 72.149C210.436 72.3414 210.459 72.5331 210.562 72.7086C210.683 72.9164 210.788 73.1379 210.873 73.372C211.016 73.766 211.095 74.1678 211.114 74.5657C211.119 74.6703 211.124 74.7593 211.131 74.864C211.187 75.7384 211.087 76.6041 210.848 77.4251L209.538 77.9018C208.827 77.4265 208.194 76.8273 207.675 76.1214C207.613 76.037 207.559 75.9656 207.496 75.8821C207.255 75.5652 207.057 75.207 206.914 74.8131C206.828 74.579 206.766 74.3421 206.726 74.1049C206.691 73.9045 206.588 73.7447 206.42 73.6306C206.259 73.5211 206.081 73.4831 205.891 73.5173C205.465 73.6078 205.069 73.6781 204.636 73.7391C204.435 73.7674 204.272 73.8654 204.153 74.0303C204.034 74.1951 203.992 74.3805 204.029 74.5804C204.071 74.8172 204.094 75.0611 204.094 75.3102C204.094 75.7295 204.03 76.1338 203.912 76.5142C203.881 76.6141 203.855 76.6994 203.826 76.7998C203.579 77.6407 203.189 78.4204 202.684 79.1103L201.29 79.1101C200.785 78.4204 200.395 77.641 200.148 76.8002C200.119 76.6997 200.093 76.6142 200.062 76.5141C199.944 76.1338 199.881 75.7293 199.881 75.31C199.881 75.0609 199.903 74.8169 199.946 74.5802C199.982 74.3803 199.94 74.1949 199.821 74.0301C199.702 73.8652 199.539 73.7673 199.338 73.7389C198.905 73.678 198.521 73.6101 198.096 73.5196C197.906 73.4855 197.72 73.5188 197.556 73.6305C197.391 73.7423 197.285 73.9045 197.25 74.1049C197.21 74.3421 197.147 74.5789 197.062 74.813C196.919 75.207 196.721 75.5653 196.48 75.8825C196.416 75.9658 196.363 76.0373 196.301 76.1216C195.782 76.8274 195.149 77.4265 194.438 77.9018L193.128 77.425C192.889 76.604 192.789 75.738 192.845 74.8635C192.852 74.7589 192.857 74.6699 192.862 74.5653C192.881 74.1674 192.959 73.7658 193.103 73.3719C193.188 73.1378 193.293 72.9164 193.414 72.7086C193.517 72.5331 193.541 72.3445 193.485 72.1489C193.431 71.9593 193.317 71.8146 193.147 71.7189C192.762 71.5145 192.419 71.3169 192.049 71.0855C191.876 70.9778 191.689 70.9481 191.491 70.9979C191.294 71.0476 191.143 71.1626 191.042 71.3392C190.923 71.5481 190.783 71.7495 190.623 71.9403C190.354 72.2614 190.045 72.5303 189.71 72.7458C189.622 72.8024 189.548 72.8512 189.461 72.9092C188.731 73.3949 187.931 73.7415 187.101 73.9451L186.033 73.0489C186.089 72.1957 186.292 71.348 186.643 70.5454C186.685 70.4495 186.72 70.3677 186.761 70.2711C186.915 69.9037 187.126 69.553 187.396 69.2318C187.556 69.041 187.73 68.8685 187.915 68.7149C188.071 68.585 188.158 68.4161 188.173 68.2133C188.188 68.0107 188.156 67.8662 188.02 67.7151C187.728 67.3904 187.447 67.0561 187.179 66.713C187.054 66.5529 186.897 66.4714 186.694 66.4509C186.492 66.4302 186.311 66.4865 186.156 66.618C185.972 66.7736 185.772 66.915 185.556 67.0396C185.193 67.2492 184.811 67.3963 184.423 67.4842C184.32 67.5073 184.234 67.5278 184.132 67.5525C183.28 67.7595 182.411 67.8115 181.561 67.7187L180.863 66.5114C181.208 65.729 181.688 65.0013 182.293 64.3675C182.366 64.2917 182.427 64.2266 182.498 64.1498C182.768 63.8573 183.087 63.6001 183.45 63.3905C183.665 63.266 183.888 63.1635 184.114 63.0824C184.306 63.0139 184.448 62.8777 184.528 62.6993C184.609 62.521 184.603 62.3232 184.544 62.1488C184.381 61.7452 184.232 61.3352 184.097 60.9197C184.03 60.7481 183.917 60.6213 183.741 60.5361C183.565 60.4509 183.368 60.4384 183.178 60.5089C182.952 60.5924 182.716 60.6568 182.47 60.7001C182.058 60.7728 181.648 60.7805 181.253 60.7303C181.149 60.7171 181.061 60.7064 180.957 60.6948C180.086 60.5981 179.25 60.3494 178.483 59.9715L178.241 58.5986C178.833 57.9812 179.533 57.4618 180.318 57.0731C180.412 57.0267 180.492 56.9865 180.585 56.9386C180.939 56.7563 181.326 56.6234 181.739 56.5505C181.984 56.5072 182.228 56.4871 182.469 56.4884C182.672 56.4894 182.847 56.4159 182.989 56.2701C183.131 56.1243 183.199 55.9932 183.192 55.7901C183.177 55.3534 183.177 54.9171 183.192 54.482C183.199 54.2788 183.131 54.1152 182.989 53.9694C182.848 53.8236 182.672 53.75 182.469 53.7511C182.228 53.7524 181.984 53.7322 181.739 53.6889C181.326 53.616 180.939 53.4832 180.585 53.3008C180.492 53.2528 180.412 53.2126 180.318 53.1662C179.533 52.7775 178.833 52.258 178.241 51.6408L178.483 50.2678C179.251 49.89 180.086 49.6412 180.957 49.5444C181.061 49.5329 181.15 49.5224 181.253 49.5092C181.649 49.459 182.058 49.4666 182.471 49.5393C182.716 49.5826 182.952 49.6472 183.178 49.7306C183.369 49.8011 183.559 49.792 183.741 49.7033C183.911 49.6215 184.03 49.4928 184.097 49.3212C184.231 48.9072 184.391 48.4677 184.555 48.0626C184.614 47.8881 184.609 47.7186 184.529 47.5402C184.449 47.3617 184.306 47.2257 184.115 47.1572C183.888 47.076 183.666 46.9735 183.45 46.849C183.087 46.6393 182.769 46.3821 182.498 46.0896C182.427 46.0128 182.366 45.9478 182.294 45.8721C181.689 45.2381 181.209 44.5104 180.864 43.728L181.561 42.5207C182.411 42.4279 183.281 42.48 184.133 42.6871C184.234 42.7118 184.321 42.7321 184.423 42.7552C184.812 42.8431 185.194 42.9903 185.557 43.2C185.773 43.3246 185.973 43.466 186.156 43.6216C186.311 43.7531 186.493 43.8094 186.695 43.7887C186.897 43.7682 187.034 43.7118 187.159 43.5516C187.428 43.2074 187.699 42.8837 187.991 42.5602C188.127 42.4091 188.189 42.2291 188.174 42.0264C188.159 41.8236 188.072 41.6547 187.916 41.5248C187.73 41.3712 187.556 41.1987 187.396 41.0079C187.127 40.6867 186.916 40.3359 186.762 39.9686C186.721 39.8721 186.686 39.7901 186.644 39.6943C186.292 38.8917 186.09 38.0439 186.034 37.1907L187.102 36.2946C187.932 36.4983 188.732 36.8448 189.461 37.3305C189.548 37.3886 189.623 37.4374 189.711 37.494C190.046 37.7095 190.355 37.9783 190.624 38.2995C190.784 38.4903 190.924 38.6917 191.043 38.9006C191.144 39.0772 191.295 39.1921 191.492 39.2419C191.689 39.2917 191.864 39.2697 192.037 39.1619C192.406 38.9313 192.784 38.7131 193.17 38.5079V38.5079ZM201.988 43.1202C208.615 43.1202 213.988 48.4928 213.988 55.1202C213.988 61.7476 208.615 67.1202 201.988 67.1202C195.361 67.1202 189.988 61.7476 189.988 55.1202C189.988 48.4928 195.361 43.1202 201.988 43.1202Z" fill="black" stroke="black" stroke-width="0.2" stroke-miterlimit="22.9256"/>
    </g>
    <!-- html not satr -->
    <style>
        #kd {
            animation-name: dnme;
            /*- animasyonun ismini belirtir */
            animation-delay: 0.2s;        
            /*- + zaman geciktirme bildirir, - zaman (-2s gibi) yazarsan animasyon 2s sonra ki konumundan balar */
            animation-duration: 5s;
            /*- animasyonun ka saniyede tamamlanacan bildirir, ms olarak da yazlabilinir */
            animation-iteration-count: infinite;
            /*- animasyonun ka kere tekrarlanacan bildirir, infinite yazarsan srekli tekrar eder */
            animation-timing-function: linear;
            /*- animasyonun balama ilerleme ve biti ivmesini ayarlar, linear sabit ivmeli gibi */
            /*- animation-direction: alternate-reverse; */
            /*- animasyonu ileri geri veya srasyla oynatmaya yarar, normal-ileri, reverse-geri, alternate-nce ileri sonra geri, alternate-reverse -nce geri sonra ileri doru */
            /*- animation-fill-mode: forwards; */
            /*- animasyonun ilk konumuna dnmesine veya son halinde kalmasna yarar, deerleri  none,forwards,backwards,both */
            /*- animation-play-state: paused; */
            /*- animasyonun duraklatlmasn salar */
            transform-origin: center;
            /*- nesnenin 0 noktasn merkezi olarak ayarlar */
            transform-box: fill-box;
        }
        @keyframes dnme {
            from   { transform: rotate(0deg); }
            to  { transform: rotate(360deg); }
        }
        #bd {
            animation-name: dnme1;
            animation-delay: 0.2s;
            animation-duration: 5s;
            animation-iteration-count: infinite;
            animation-timing-function: linear;
            animation-direction: reverse;
            transform-origin: center;
            transform-box: fill-box;
        }
        @keyframes dnme1 {
            from   { transform: rotate(0deg); }
            to  { transform: rotate(360deg); }
        }
        #twitter1 {
            animation-name: kayma;
            animation-delay: 0.5s;
            animation-duration: 5s;
            animation-iteration-count: infinite;
            animation-timing-function: linear;
        }
        @keyframes kayma {
            0%   {transform: translate(0, 0); opacity: 1; }
            80%   {transform: translate(-120px, 0); opacity: 1; }
            100%   {transform: translate(-150px, 0); opacity: 0; }
        }
        #instagram1 {
            animation-name: kayma1;
            animation-delay: 1.5s;
            animation-duration: 5s;
            animation-iteration-count: infinite;
            animation-timing-function: linear;
        }
        @keyframes kayma1 {
            0%   {transform: translate(0, 0); opacity: 1; }
            80%   {transform: translate(-120px, 0); opacity: 1; }
            100%   {transform: translate(-150px, 0); opacity: 0; }
        }
        #youtube1 {
            animation-name: kayma2;
            animation-delay: 2.5s;
            animation-duration: 5s;
            animation-iteration-count: infinite;
            animation-timing-function: linear;
        }
        @keyframes kayma2 {
            0%   {transform: translate(0, 0); opacity: 1; }
            80%   {transform: translate(-120px, 0); opacity: 1; }
            100%   {transform: translate(-150px, 0); opacity: 0; }
        }
        #facebook1 {
            animation-name: kayma3;
            animation-delay: 3.5s;
            animation-duration: 5s;
            animation-iteration-count: infinite;
            animation-timing-function: linear;
        }
        @keyframes kayma3 {
            0%   {transform: translate(0, 0); opacity: 1; }
            80%   {transform: translate(-120px, 0); opacity: 1; }
            100%   {transform: translate(-150px, 0); opacity: 0; }
        }
        #tiktok1 {
            animation-name: kayma4;
            animation-delay: 4.5s;
            animation-duration: 5s;
            animation-iteration-count: infinite;
            animation-timing-function: linear;
        }
        @keyframes kayma4 {
            0%   {transform: translate(0, 0); opacity: 1; }
            80%   {transform: translate(-120px, 0); opacity: 1; }
            100%   {transform: translate(-150px, 0); opacity: 0; }
        }

        /*- Sa tarafta ki logolarn ekilme ayarlar */

        #youtube {
            animation-name: cekilme;
            animation-delay: 0.5s;
            animation-duration: 3s;
            animation-iteration-count: infinite;
            animation-timing-function: ease-in;
            transform-origin: center;
            transform-box: fill-box;
            offset-path: path('M300,75 Q300,95 220,95');
            offset-rotate: 0deg;
        }
        @keyframes cekilme {
            0%   {transform: scaleX(1) scaleY(1); offset-distance: 0%;  }
            50%   {transform: scaleX(0.5) scaleY(0.5); opacity: 1; offset-distance: 100%;  }
            51%   {transform: scaleX(0.5) scaleY(0.5); opacity: 0; offset-distance: 100%;  }
            59%   {transform: scaleX(0.2) scaleY(0.2); opacity: 0; offset-distance: 0%;  }
            60%   {transform: scaleX(0.2) scaleY(0.2); opacity: 1; offset-distance: 0%;  }
            100%   {transform: scaleX(1) scaleY(1); offset-distance: 0%;  }
        }
        #flickr {
            animation-name: cekilme1;
            animation-delay: 0.7s;
            animation-duration: 5s;
            animation-iteration-count: infinite;
            animation-timing-function: ease-in;
            transform-origin: center;
            transform-box: fill-box;
            offset-path: path('M300,125 Q300,95 220,95');
            offset-rotate: 0deg;
        }
        @keyframes cekilme1 {
            0%   {transform: scaleX(1) scaleY(1); offset-distance: 0%;  }
            50%   {transform: scaleX(0.5) scaleY(0.5); opacity: 1; offset-distance: 100%;  }
            51%   {transform: scaleX(0.5) scaleY(0.5); opacity: 0; offset-distance: 100%;  }
            59%   {transform: scaleX(0.2) scaleY(0.2); opacity: 0; offset-distance: 0%;  }
            60%   {transform: scaleX(0.2) scaleY(0.2); opacity: 1; offset-distance: 0%;  }
            100%   {transform: scaleX(1) scaleY(1); offset-distance: 0%;  }
        }
        #twitter {
            animation-name: cekilme2;
            animation-delay: 0.3s;
            animation-duration: 4.2s;
            animation-iteration-count: infinite;
            animation-timing-function: ease-in;
            transform-origin: center;
            transform-box: fill-box;
            offset-path: path('M330,95 L220,95');
            offset-rotate: 0deg;
        }
        @keyframes cekilme2 {
            0%   {transform: scaleX(1) scaleY(1); offset-distance: 0%;  }
            50%   {transform: scaleX(0.3) scaleY(0.3); opacity: 1; offset-distance: 100%;  }
            51%   {transform: scaleX(0.3) scaleY(0.3); opacity: 0; offset-distance: 100%;  }
            59%   {transform: scaleX(0.2) scaleY(0.2); opacity: 0; offset-distance: 0%;  }
            60%   {transform: scaleX(0.2) scaleY(0.2); opacity: 1; offset-distance: 0%;  }
            100%   {transform: scaleX(1) scaleY(1); offset-distance: 0%;  }
        }
        #facebook {
            animation-name: cekilme3;
            animation-delay: 1.2s;
            animation-duration: 6s;
            animation-iteration-count: infinite;
            animation-timing-function: ease-in;
            transform-origin: center;
            transform-box: fill-box;
            offset-path: path('M330,45 Q330,95 220,95');
            offset-rotate: 0deg;
        }
        @keyframes cekilme3 {
            0%   {transform: scaleX(1) scaleY(1); opacity: 1; offset-distance: 0%; }
            50%   {transform: scaleX(0.5) scaleY(0.5); opacity: 1; offset-distance: 100%; }
            51%   {transform: scaleX(0.5) scaleY(0.5); opacity: 0; offset-distance: 100%;}
            59%   {transform: scaleX(0.2) scaleY(0.2); opacity: 0; offset-distance: 0%;}
            60%   {transform: scaleX(0.2) scaleY(0.2); opacity: 1; offset-distance: 0%;}
            100%   {transform: scaleX(1) scaleY(1); opacity: 1; offset-distance: 0%; }
        }
        #tiktok {
            animation-name: cekilme4;
            animation-delay: 1.7s;
            animation-duration: 6s;
            animation-iteration-count: infinite;
            animation-timing-function: ease-in;
            transform-origin: center;
            transform-box: fill-box;
            offset-path: path('M330,145 Q330,95 220,95');
            offset-rotate: 0deg;
        }
        @keyframes cekilme4 {
            0%   {transform: scaleX(1) scaleY(1); opacity: 1; offset-distance: 1%; }
            50%   {transform: scaleX(0.5) scaleY(0.5); opacity: 1; offset-distance: 100%; }
            51%   {transform: scaleX(0.5) scaleY(0.5); opacity: 0; offset-distance: 100%;}
            59%   {transform: scaleX(0.2) scaleY(0.2); opacity: 0; offset-distance: 0%;}
            60%   {transform: scaleX(0.2) scaleY(0.2); opacity: 1; offset-distance: 0%;}
            100%   {transform: scaleX(1) scaleY(1); opacity: 1; offset-distance: 0%; }
        }
        #medium {
            animation-name: cekilme5;
            animation-delay: 2s;
            animation-duration: 5s;
            animation-iteration-count: infinite;
            animation-timing-function: ease-in;
            transform-origin: center;
            transform-box: fill-box;
            offset-path: path('M385,95 L220,95');
            offset-rotate: 0deg;
        }
        @keyframes cekilme5 {
            0%   {transform: scaleX(1) scaleY(1); opacity: 1; offset-distance: 1%; }
            50%   {transform: scaleX(0.5) scaleY(0.5); opacity: 1; offset-distance: 100%; }
            51%   {transform: scaleX(0.5) scaleY(0.5); opacity: 0; offset-distance: 100%;}
            59%   {transform: scaleX(0.2) scaleY(0.2); opacity: 0; offset-distance: 0%;}
            60%   {transform: scaleX(0.2) scaleY(0.2); opacity: 1; offset-distance: 0%;}
            100%   {transform: scaleX(1) scaleY(1); opacity: 1; offset-distance: 0%; }
        }
        #pinterest {
            animation-name: cekilme6;
            animation-delay: 2.2s;
            animation-duration: 6s;
            animation-iteration-count: infinite;
            animation-timing-function: ease-in;
            transform-origin: center;
            transform-box: fill-box;
            offset-path: path('M380,55 Q330,95 220,95');
            offset-rotate: 0deg;
        }
        @keyframes cekilme6 {
            0%   {transform: scaleX(1) scaleY(1); opacity: 1; offset-distance: 0%; }
            50%   {transform: scaleX(0.5) scaleY(0.5); opacity: 1; offset-distance: 100%; }
            51%   {transform: scaleX(0.5) scaleY(0.5); opacity: 0; offset-distance: 100%;}
            59%   {transform: scaleX(0.2) scaleY(0.2); opacity: 0; offset-distance: 0%;}
            60%   {transform: scaleX(0.2) scaleY(0.2); opacity: 1; offset-distance: 0%;}
            100%   {transform: scaleX(1) scaleY(1); opacity: 1; offset-distance: 0%; }
        }
        #reddit {
            animation-name: cekilme7;
            animation-delay: 2.4s;
            animation-duration: 6s;
            animation-iteration-count: infinite;
            animation-timing-function: ease-in;
            transform-origin: center;
            transform-box: fill-box;
            offset-path: path('M380,135 Q330,95 220,95');
            offset-rotate: 0deg;
        }
        @keyframes cekilme7 {
            0%   {transform: scaleX(1) scaleY(1); opacity: 1; offset-distance: 0%; }
            50%   {transform: scaleX(0.5) scaleY(0.5); opacity: 1; offset-distance: 100%; }
            51%   {transform: scaleX(0.5) scaleY(0.5); opacity: 0; offset-distance: 100%;}
            59%   {transform: scaleX(0.2) scaleY(0.2); opacity: 0; offset-distance: 0%;}
            60%   {transform: scaleX(0.2) scaleY(0.2); opacity: 1; offset-distance: 0%;}
            100%   {transform: scaleX(1) scaleY(1); opacity: 1; offset-distance: 0%; }
        }
        #tumblr {
            animation-name: cekilme8;
            animation-delay: 2.6s;
            animation-duration: 6s;
            animation-iteration-count: infinite;
            animation-timing-function: ease-in;
            transform-origin: center;
            transform-box: fill-box;
            offset-path: path('M370,25 Q330,95 220,95');
            offset-rotate: 0deg;
        }
        @keyframes cekilme8 {
            0%   {transform: scaleX(1) scaleY(1); opacity: 1; offset-distance: 0%; }
            50%   {transform: scaleX(0.5) scaleY(0.5); opacity: 1; offset-distance: 100%; }
            51%   {transform: scaleX(0.5) scaleY(0.5); opacity: 0; offset-distance: 100%;}
            59%   {transform: scaleX(0.2) scaleY(0.2); opacity: 0; offset-distance: 0%;}
            60%   {transform: scaleX(0.2) scaleY(0.2); opacity: 1; offset-distance: 0%;}
            100%   {transform: scaleX(1) scaleY(1); opacity: 1; offset-distance: 0%; }
        }
        #instagram {
            animation-name: cekilme9;
            animation-delay: 0.4s;
            animation-duration: 6s;
            animation-iteration-count: infinite;
            animation-timing-function: ease-in;
            transform-origin: center;
            transform-box: fill-box;
            offset-path: path('M370,165 Q330,95 220,95');
            offset-rotate: 0deg;
        }
        @keyframes cekilme9 {
            0%   {transform: scaleX(1) scaleY(1); opacity: 1; offset-distance: 0%; }
            50%   {transform: scaleX(0.5) scaleY(0.5); opacity: 1; offset-distance: 100%; }
            51%   {transform: scaleX(0.5) scaleY(0.5); opacity: 0; offset-distance: 100%;}
            59%   {transform: scaleX(0.2) scaleY(0.2); opacity: 0; offset-distance: 0%;}
            60%   {transform: scaleX(0.2) scaleY(0.2); opacity: 1; offset-distance: 0%;}
            100%   {transform: scaleX(1) scaleY(1); opacity: 1; offset-distance: 0%; }
        }
    </style>
</svg>