<svg width="160" height="160" viewBox="0 0 160 160" fill="none" xmlns="http://www.w3.org/2000/svg">
    <g id="yenipostlogo">
        <path id="kutu" fill-rule="evenodd" clip-rule="evenodd" d="M152 108.256V22.9774C152 14.7281 145.261 8 137 8H22C13.7387 8 7 14.7286 7 22.9774V108.256C7 116.505 13.7383 123.234 22 123.234H57.0001V147.475C57.0001 149.75 58.2958 151.693 60.3942 152.564C62.4927 153.436 64.7806 152.98 66.3875 151.372L94.5001 123.234H137C145.262 123.234 152 116.506 152 108.256V108.256Z" fill="#FF9400" stroke="black" stroke-width="15" stroke-miterlimit="22.9256"/>
        <path id="rakam" d="M130.233 32V96.1809H114.249V61.7239C114.249 56.7474 114.127 53.7453 113.897 52.7445C113.654 51.7438 113.005 50.973 111.936 50.4591C110.868 49.9453 108.488 49.6883 104.796 49.6883H103.214V42.2371C110.949 40.5872 116.818 37.1659 120.821 32H130.233Z" fill="black"/>
        <path id="kare" d="M52.3835 59.0634L48.7675 69.2058H59.6742L63.2902 59.0634H52.3835V59.0634ZM51.4868 32.2523H62.1731L56.1758 49.1856H66.5681L72.5947 32.2523H83.2368L77.2543 49.1856H88.8813L85.1771 59.0634H73.7118L70.184 69.1176H82.1197L78.5037 78.9953H66.6416L60.5709 95.9287H49.8846L55.97 78.9953H45.5778L39.5071 95.9287H28.8209L34.8916 78.9953H23L26.7042 69.1176H38.4194L41.9618 59.0634H29.6734L33.3776 49.1856H45.4896L51.4868 32.2523V32.2523Z" fill="black"/>
    </g>
</svg>