<svg width="300" height="300" viewBox="0 0 300 300" fill="none" xmlns="http://www.w3.org/2000/svg">
	<g id="yenipostakutusu">
		<path id="Vector" d="M150 252.023C206.346 252.023 252.023 206.346 252.023 150C252.023 93.6541 206.346 47.9767 150 47.9767C93.6541 47.9767 47.9767 93.6541 47.9767 150C47.9767 206.346 93.6541 252.023 150 252.023Z" fill="#F5F5DC" stroke="black" stroke-width="5" stroke-miterlimit="22.9256"/>
		<path id="Vector_2" fill-rule="evenodd" clip-rule="evenodd" d="M151.336 152.201C151.239 139.613 138.964 129.434 123.837 129.434C116.69 129.434 110.18 131.706 105.29 135.43L107.11 134.009C106.481 134.411 105.874 134.835 105.29 135.28L105.286 135.283C99.7861 139.474 96.3367 145.501 96.3367 152.201V184.284H151.337V152.351C151.337 152.301 151.337 152.251 151.336 152.201Z" fill="#F5F5DC"/>
		<path id="Vector_3" fill-rule="evenodd" clip-rule="evenodd" d="M161.47 91.5666L105.29 135.43C110.18 131.706 116.69 129.434 123.837 129.434C139.024 129.434 151.337 139.694 151.337 152.351V184.434L203.663 136.049V106.81C203.663 95.2758 192.443 85.9254 178.602 85.9254C171.976 85.9254 165.951 88.0678 161.47 91.5666V91.5666Z" fill="#F5F5DC"/>
		<path id="Vector_4" d="M105.286 135.283L161.47 91.4166C165.951 87.9178 171.976 85.7754 178.602 85.7754C192.443 85.7754 203.663 95.1258 203.663 106.66V135.899L151.337 184.284H96.3367V152.201C96.3367 139.544 108.649 129.284 123.837 129.284C139.024 129.284 151.337 139.544 151.337 152.201V184.284" stroke="black" stroke-width="5" stroke-miterlimit="22.9256"/>
		<path id="Vector_5" d="M173.599 164.782V222.086M164.147 173.522V222.086H173.599L182.84 213.539V156.237L164.147 173.522Z" stroke="black" stroke-width="2.5" stroke-miterlimit="22.9256"/>
		<path id="Vector_6" fill-rule="evenodd" clip-rule="evenodd" d="M173.599 165.537V222.086L182.84 213.539V156.992L173.599 165.537Z" fill="black"/>
		<path id="Vector_7" fill-rule="evenodd" clip-rule="evenodd" d="M121.554 121.676V95.3016L128.622 88.718V70.1144L113.882 80.3573V128.043L121.554 121.676Z" fill="black" stroke="black" stroke-width="0.25" stroke-miterlimit="22.9256"/>
	</g>
</svg>
