<svg width="163" height="147" fill="none" xmlns="http://www.w3.org/2000/svg">
	<g id="yenipostlogo">
		<path id="perde3" fill-rule="evenodd" clip-rule="evenodd" d="M41.3845 0H148.616C156.453 0 162.866 6.4125 162.866 14.25V76.2376C162.866 84.0751 156.453 90.4876 148.616 90.4876H41.3845C33.547 90.4876 27.1345 84.0751 27.1345 76.2376V14.25C27.1345 6.4125 33.547 0 41.3845 0V0Z" fill="#F24B4B"/>
		<path id="perde2" fill-rule="evenodd" clip-rule="evenodd" d="M28.5626 7.43349H141.438C149.688 7.43349 156.438 14.1834 156.438 22.4334V87.6837C156.438 95.9337 149.688 102.684 141.438 102.684H28.5626C20.3125 102.684 13.5626 95.9337 13.5626 87.6837V22.4334C13.5626 14.1834 20.3125 7.43349 28.5626 7.43349V7.43349Z" fill="#33A8F2"/>
		<path id="perde1" fill-rule="evenodd" clip-rule="evenodd" d="M0.000199182 146.504L9.91821e-05 65.0402V30.0402C9.91821e-05 21.7785 6.7384 15.0402 15.0001 15.0402H135C143.262 15.0402 150 21.7786 150 30.0402V100.04C150 108.302 143.262 115.04 135 115.04H44.1815C40.0173 115.04 36.7494 116.889 33.5071 119.502L0.000199182 146.504V146.504Z" fill="#fdb943"/>
		<path id="kare" d="M74.7577 53.9358C74.7577 54.712 74.7092 55.3425 74.6122 55.8761C74.5152 56.3935 74.402 56.8139 74.2403 57.1373C74.0786 57.4607 73.8846 57.687 73.6421 57.8326C73.4157 57.9781 73.1732 58.0428 72.9145 58.0428H67.5302L65.9133 71.6247H70.5376C71.0712 71.6247 71.5078 71.9319 71.8311 72.5463C72.1707 73.1608 72.3324 74.1956 72.3324 75.6508C72.3324 76.4107 72.2839 77.0575 72.1869 77.5911C72.0898 78.1246 71.9767 78.5612 71.815 78.8684C71.6533 79.1918 71.4593 79.4182 71.2167 79.5637C70.9904 79.7092 70.7478 79.7739 70.4891 79.7739H64.8785L63.1161 94.5685C63.0837 94.8434 63.0029 95.0859 62.8574 95.2961C62.7118 95.5063 62.4693 95.6842 62.0974 95.8458C61.7417 95.9914 61.2566 96.1046 60.626 96.1692C60.0116 96.2339 59.2355 96.2662 58.2977 96.2662C57.2791 96.2662 56.4706 96.2339 55.8562 96.1692C55.2418 96.1046 54.7729 95.9914 54.4657 95.8458C54.1423 95.6842 53.9321 95.5063 53.8189 95.2961C53.7057 95.0859 53.6734 94.8434 53.7057 94.5685L55.5166 79.7739H44.8936L43.1312 94.5685C43.0989 94.811 43.018 95.0536 42.8725 95.2799C42.727 95.4901 42.4844 95.6842 42.1287 95.8458C41.7892 95.9914 41.3041 96.1046 40.6897 96.1692C40.0591 96.2339 39.2506 96.2662 38.232 96.2662C37.2619 96.2662 36.4696 96.2339 35.8552 96.1692C35.2569 96.1046 34.788 95.9914 34.4646 95.8458C34.1251 95.6842 33.8987 95.5063 33.7855 95.2961C33.6885 95.0859 33.6562 94.8434 33.7208 94.5685L35.4509 79.7739H30.956C30.4224 79.7739 29.9858 79.4667 29.6624 78.8684C29.3229 78.2702 29.1612 77.2353 29.1612 75.7478C29.1612 74.9879 29.2097 74.3411 29.3067 73.8075C29.4037 73.2739 29.5169 72.8374 29.6786 72.5302C29.8403 72.2068 30.0343 71.9804 30.2445 71.8349C30.4709 71.6894 30.7296 71.6247 31.0045 71.6247H36.5019L38.1188 58.0428H33.3005C32.7669 58.0428 32.3303 57.7356 31.9908 57.1373C31.6512 56.5391 31.4895 55.4881 31.4895 53.9844C31.4895 52.4645 31.6674 51.3973 32.0069 50.7991C32.3627 50.2008 32.8154 49.8936 33.349 49.8936H39.089L40.8029 36.1176C40.8029 35.8266 40.8837 35.584 41.0454 35.39C41.1909 35.1798 41.4658 35.002 41.8377 34.8403C42.2257 34.6786 42.727 34.5654 43.3576 34.4846C43.9882 34.4037 44.7966 34.3714 45.7667 34.3714C46.753 34.3714 47.5292 34.4037 48.1274 34.4846C48.7257 34.5654 49.1946 34.6786 49.5018 34.8403C49.8252 35.002 50.0192 35.1798 50.1 35.39C50.1809 35.584 50.2132 35.8104 50.2132 36.0691L48.4508 49.8936H59.0738L60.6907 36.1176C60.723 35.8589 60.8201 35.6326 60.9818 35.4062C61.1273 35.196 61.386 35.002 61.7579 34.8403C62.1136 34.6786 62.6148 34.5654 63.2454 34.4846C63.876 34.4037 64.7006 34.3714 65.7031 34.3714C66.6732 34.3714 67.4655 34.4037 68.0638 34.4846C68.662 34.5654 69.1309 34.6786 69.4381 34.8403C69.7615 35.002 69.9555 35.1798 70.0364 35.39C70.1011 35.584 70.1334 35.8104 70.1011 36.0691L68.4357 49.8936H72.963C73.4965 49.8936 73.9331 50.2008 74.2565 50.8152C74.596 51.4458 74.7577 52.4806 74.7577 53.9358V53.9358ZM47.4968 58.0428L45.8961 71.6247H56.4544L58.1198 58.0428H47.4968V58.0428Z" fill="black"/>
		<path id="rakam" d="M120.839 91.2377C120.839 92.127 120.791 92.8708 120.694 93.4852C120.597 94.0996 120.467 94.6008 120.29 94.9566C120.128 95.3284 119.918 95.5871 119.708 95.7327C119.481 95.8944 119.222 95.9752 118.948 95.9752H85.0412C84.7986 95.9752 84.5561 95.8944 84.3297 95.7327C84.1195 95.5871 83.9255 95.3284 83.7477 94.9566C83.5698 94.6008 83.4404 94.0996 83.3434 93.4852C83.2464 92.8708 83.1979 92.127 83.1979 91.2377C83.1979 90.3322 83.2303 89.5723 83.3111 88.9417C83.3919 88.3273 83.5213 87.8422 83.6992 87.4541C83.877 87.0823 84.071 86.8074 84.2974 86.6295C84.5076 86.4517 84.7663 86.3708 85.0412 86.3708H96.4888V46.4981L86.6419 51.9309C85.9305 52.2704 85.3322 52.4968 84.8795 52.5776C84.4106 52.6423 84.0549 52.5615 83.78 52.2866C83.5213 52.0117 83.3434 51.559 83.2464 50.8961C83.1494 50.2331 83.1009 49.2953 83.1009 48.0988C83.1009 47.3389 83.1171 46.7083 83.1494 46.2232C83.1817 45.7382 83.2626 45.3178 83.3919 44.9782C83.5051 44.6225 83.683 44.3476 83.9093 44.1213C84.1195 43.8949 84.4268 43.6685 84.7986 43.4098L97.9602 34.8888C98.1219 34.7594 98.3159 34.6624 98.5423 34.5816C98.7848 34.5007 99.092 34.4361 99.4801 34.3875C99.852 34.339 100.353 34.3067 100.968 34.2905C101.582 34.2744 102.374 34.2744 103.361 34.2744C104.557 34.2744 105.527 34.2905 106.271 34.339C107.015 34.3875 107.581 34.4684 107.953 34.5816C108.341 34.6948 108.583 34.8403 108.713 35.0343C108.842 35.2283 108.907 35.4547 108.907 35.7457V86.3708H118.931C119.222 86.3708 119.481 86.4517 119.724 86.6295C119.966 86.8074 120.16 87.0823 120.338 87.4541C120.516 87.8422 120.645 88.3273 120.726 88.9417C120.807 89.5723 120.839 90.3322 120.839 91.2377V91.2377Z" fill="black"/>
	</g>
</svg>
