<svg width="142" height="140" fill="none" xmlns="http://www.w3.org/2000/svg">
	<g id="yenipostlogo">
		<path id="kutu" fill-rule="evenodd" clip-rule="evenodd" d="M136 94.3108V18.3109C136 11.7015 130.609 6.3109 124 6.3109L18 6.3108C11.3906 6.3108 6 11.7014 6 18.3108V94.3108C6 100.92 11.3906 106.311 18 106.311H66.9839C69.751 106.311 72.1288 107.122 74.3188 108.814L98.7591 127.689V106.311H124C130.609 106.311 136 100.92 136 94.3108Z" stroke="#ff9400" stroke-width="12" stroke-miterlimit="22.9256"/>
		<path id="kare" d="M70.7575 45.3291C70.7575 46.1053 70.709 46.7358 70.612 47.2694C70.515 47.7868 70.4018 48.2072 70.2401 48.5306C70.0784 48.854 69.8844 49.0803 69.6419 49.2259C69.4155 49.3714 69.173 49.4361 68.9143 49.4361H63.53L61.9131 63.018H66.5374C67.071 63.018 67.5076 63.3252 67.8309 63.9396C68.1705 64.5541 68.3322 65.5889 68.3322 67.0441C68.3322 67.804 68.2837 68.4508 68.1867 68.9844C68.0896 69.5179 67.9765 69.9545 67.8148 70.2617C67.6531 70.5851 67.4591 70.8115 67.2165 70.957C66.9902 71.1025 66.7476 71.1672 66.4889 71.1672H60.8783L59.1159 85.9618C59.0835 86.2367 59.0027 86.4792 58.8572 86.6894C58.7116 86.8996 58.4691 87.0775 58.0972 87.2391C57.7415 87.3847 57.2564 87.4979 56.6258 87.5625C56.0114 87.6272 55.2353 87.6595 54.2975 87.6595C53.2789 87.6595 52.4704 87.6272 51.856 87.5625C51.2416 87.4979 50.7727 87.3847 50.4655 87.2391C50.1421 87.0775 49.9319 86.8996 49.8187 86.6894C49.7055 86.4792 49.6732 86.2367 49.7055 85.9618L51.5164 71.1672H40.8934L39.131 85.9618C39.0987 86.2043 39.0178 86.4469 38.8723 86.6732C38.7268 86.8834 38.4842 87.0775 38.1285 87.2391C37.789 87.3847 37.3039 87.4979 36.6895 87.5625C36.0589 87.6272 35.2504 87.6595 34.2318 87.6595C33.2617 87.6595 32.4694 87.6272 31.855 87.5625C31.2567 87.4979 30.7878 87.3847 30.4644 87.2391C30.1249 87.0775 29.8985 86.8996 29.7853 86.6894C29.6883 86.4792 29.656 86.2367 29.7206 85.9618L31.4507 71.1672H26.9558C26.4222 71.1672 25.9856 70.86 25.6622 70.2617C25.3227 69.6635 25.161 68.6286 25.161 67.1411C25.161 66.3812 25.2095 65.7344 25.3065 65.2008C25.4035 64.6672 25.5167 64.2307 25.6784 63.9235C25.8401 63.6001 26.0341 63.3737 26.2443 63.2282C26.4707 63.0827 26.7294 63.018 27.0043 63.018H32.5017L34.1186 49.4361H29.3003C28.7667 49.4361 28.3301 49.1289 27.9906 48.5306C27.651 47.9324 27.4893 46.8814 27.4893 45.3777C27.4893 43.8578 27.6672 42.7906 28.0067 42.1924C28.3625 41.5941 28.8152 41.2869 29.3488 41.2869H35.0888L36.8027 27.5109C36.8027 27.2199 36.8835 26.9773 37.0452 26.7833C37.1907 26.5731 37.4656 26.3953 37.8375 26.2336C38.2255 26.0719 38.7268 25.9587 39.3574 25.8779C39.988 25.797 40.7964 25.7647 41.7665 25.7647C42.7528 25.7647 43.529 25.797 44.1272 25.8779C44.7255 25.9587 45.1944 26.0719 45.5016 26.2336C45.825 26.3953 46.019 26.5731 46.0998 26.7833C46.1807 26.9773 46.213 27.2037 46.213 27.4624L44.4506 41.2869H55.0736L56.6905 27.5109C56.7228 27.2522 56.8199 27.0259 56.9816 26.7995C57.1271 26.5893 57.3858 26.3953 57.7577 26.2336C58.1134 26.0719 58.6146 25.9587 59.2452 25.8779C59.8758 25.797 60.7004 25.7647 61.7029 25.7647C62.673 25.7647 63.4653 25.797 64.0636 25.8779C64.6618 25.9587 65.1307 26.0719 65.4379 26.2336C65.7613 26.3953 65.9553 26.5731 66.0362 26.7833C66.1009 26.9773 66.1332 27.2037 66.1009 27.4624L64.4355 41.2869H68.9628C69.4963 41.2869 69.9329 41.5941 70.2563 42.2085C70.5958 42.8391 70.7575 43.8739 70.7575 45.3291V45.3291ZM43.4966 49.4361L41.8959 63.018H52.4542L54.1196 49.4361H43.4966Z" fill="#FFFFFF"/>
		<path id="rakam" d="M116.839 82.631C116.839 83.5203 116.791 84.2641 116.694 84.8785C116.597 85.4929 116.467 85.9941 116.289 86.3499C116.128 86.7217 115.917 86.9804 115.707 87.126C115.481 87.2877 115.222 87.3685 114.947 87.3685H81.041C80.7984 87.3685 80.5559 87.2877 80.3295 87.126C80.1193 86.9804 79.9253 86.7217 79.7475 86.3499C79.5696 85.9941 79.4402 85.4929 79.3432 84.8785C79.2462 84.2641 79.1977 83.5203 79.1977 82.631C79.1977 81.7255 79.2301 80.9656 79.3109 80.335C79.3917 79.7206 79.5211 79.2355 79.699 78.8474C79.8768 78.4756 80.0708 78.2007 80.2972 78.0228C80.5074 77.845 80.7661 77.7641 81.041 77.7641H92.4886V37.8914L82.6417 43.3242C81.9303 43.6637 81.332 43.8901 80.8793 43.9709C80.4104 44.0356 80.0547 43.9548 79.7798 43.6799C79.5211 43.405 79.3432 42.9523 79.2462 42.2894C79.1492 41.6264 79.1007 40.6886 79.1007 39.4921C79.1007 38.7322 79.1169 38.1016 79.1492 37.6165C79.1815 37.1315 79.2624 36.7111 79.3917 36.3715C79.5049 36.0158 79.6828 35.7409 79.9091 35.5146C80.1193 35.2882 80.4266 35.0618 80.7984 34.8031L93.96 26.2821C94.1217 26.1527 94.3157 26.0557 94.5421 25.9749C94.7846 25.894 95.0918 25.8294 95.4799 25.7808C95.8518 25.7323 96.353 25.7 96.9674 25.6838C97.5818 25.6677 98.3741 25.6677 99.3604 25.6677C100.557 25.6677 101.527 25.6838 102.271 25.7323C103.015 25.7808 103.58 25.8617 103.952 25.9749C104.34 26.0881 104.583 26.2336 104.712 26.4276C104.842 26.6216 104.906 26.848 104.906 27.139V77.7641H114.931C115.222 77.7641 115.481 77.845 115.723 78.0228C115.966 78.2007 116.16 78.4756 116.338 78.8474C116.516 79.2355 116.645 79.7206 116.726 80.335C116.807 80.9656 116.839 81.7255 116.839 82.631V82.631Z" fill="#FFFFFF"/>
	</g>
</svg>