<svg width="192" height="167" fill="none" xmlns="http://www.w3.org/2000/svg">
	<g id="yplogo">
		<path id="Vector" fill-rule="evenodd" clip-rule="evenodd" d="M96 11.0927L183.126 162H8.8736L96 11.0927Z" fill="white" stroke="#4e5b98" stroke-width="10" stroke-miterlimit="22.9256"/>
		<path id="Vector_2" fill-rule="evenodd" clip-rule="evenodd" d="M146.884 115.546C112.985 154.531 79.0853 154.531 45.1857 115.546C79.0853 76.562 112.985 76.562 146.884 115.546Z" stroke="black" stroke-width="6" stroke-miterlimit="22.9256"/>
		<path id="Vector_3" d="M114.589 103.127C116.971 106.678 118.36 110.95 118.36 115.546C118.36 127.876 108.365 137.871 96.0351 137.871C83.7053 137.871 73.7101 127.876 73.7101 115.546C73.7101 110.974 75.0849 106.722 77.4434 103.183" stroke="black" stroke-width="4" stroke-miterlimit="22.9256"/>
		<path id="Vector_4" fill-rule="evenodd" clip-rule="evenodd" d="M93.7777 102.744C100.848 101.497 107.591 106.218 108.838 113.289C110.084 120.36 105.363 127.102 98.2925 128.349C91.2219 129.596 84.4793 124.875 83.2326 117.804C82.8466 115.615 83.033 113.458 83.6837 111.485C84.4522 113.034 86.1725 113.96 87.9614 113.644C90.137 113.261 91.5896 111.186 91.206 109.011C90.8794 107.158 89.3268 105.83 87.5297 105.713C89.2472 104.225 91.3767 103.167 93.7777 102.744V102.744Z" fill="black" stroke="black" stroke-width="0.2" stroke-miterlimit="22.9256"/>
		<path id="Vector_5" d="M45.1857 115.546C79.2653 96.4808 113.165 96.4808 146.884 115.546" stroke="black" stroke-width="4" stroke-miterlimit="22.9256"/>
	</g>
</svg>