<svg width="192" height="166" fill="none" xmlns="http://www.w3.org/2000/svg">
	<g id="yenipostgoz">
		<path id="ucgen" fill-rule="evenodd" clip-rule="evenodd" d="M96.1264 10L183.253 160.907H9L96.1264 10Z" fill="white" stroke="#FCA205" stroke-width="10" stroke-miterlimit="22.9256"/>
		<path id="goz" fill-rule="evenodd" clip-rule="evenodd" d="M47.8545 114.454C80.2302 96.3414 112.435 96.3414 144.468 114.454C112.264 151.489 80.0592 151.489 47.8545 114.454V114.454Z" stroke="black" stroke-width="6" stroke-miterlimit="22.9256"/>
		<path id="yay" d="M44.8244 114.925C79.0491 75.5666 113.274 75.5666 147.499 114.925" stroke="black" stroke-width="4" stroke-miterlimit="22.9256"/>
		<path id="mercek" d="M113.788 102.655C116.05 106.028 117.37 110.087 117.37 114.454C117.37 126.167 107.875 135.663 96.1615 135.663C84.4482 135.663 74.9527 126.167 74.9527 114.454C74.9527 110.11 76.2588 106.071 78.4994 102.708" stroke="black" stroke-width="4" stroke-miterlimit="22.9256"/>
		<path id="iris" fill-rule="evenodd" clip-rule="evenodd" d="M94.0169 102.291C100.734 101.107 107.14 105.592 108.324 112.309C109.508 119.026 105.023 125.432 98.306 126.616C91.589 127.801 85.1835 123.316 83.9991 116.598C83.6324 114.519 83.8095 112.469 84.4277 110.596C85.1577 112.067 86.792 112.947 88.4915 112.647C90.5583 112.283 91.9383 110.312 91.5739 108.245C91.2636 106.485 89.7886 105.223 88.0814 105.112C89.713 103.698 91.736 102.694 94.0169 102.291V102.291Z" fill="black"/>
	</g>
</svg>