<svg width="143" height="152" fill="none" xmlns="http://www.w3.org/2000/svg">
	<g id="yenipostlogo">
		<path id="kutu" fill-rule="evenodd" clip-rule="evenodd" d="M136 137.464L136 56V21C136 12.7383 130.16 6 123 6H19C11.8399 6 6 12.7384 6 21V91C6 99.2617 11.8399 106 19 106H97.7095C101.318 106 104.151 107.849 106.961 110.462L136 137.464Z" stroke="#FDB943" stroke-width="12.3999" stroke-miterlimit="22.9256"/>
		<path id="kare" d="M70.5965 45.6614C70.5965 46.4376 70.548 47.0681 70.451 47.6017C70.354 48.1191 70.2408 48.5395 70.0791 48.8629C69.9174 49.1863 69.7234 49.4126 69.4809 49.5582C69.2545 49.7037 69.012 49.7684 68.7533 49.7684H63.369L61.7521 63.3503H66.3764C66.91 63.3503 67.3466 63.6575 67.6699 64.2719C68.0095 64.8864 68.1712 65.9212 68.1712 67.3764C68.1712 68.1363 68.1227 68.7831 68.0257 69.3167C67.9286 69.8502 67.8155 70.2868 67.6538 70.594C67.4921 70.9174 67.2981 71.1438 67.0555 71.2893C66.8292 71.4348 66.5866 71.4995 66.3279 71.4995H60.7173L58.9549 86.2941C58.9225 86.569 58.8417 86.8115 58.6962 87.0217C58.5506 87.2319 58.3081 87.4098 57.9362 87.5714C57.5805 87.717 57.0954 87.8302 56.4648 87.8948C55.8504 87.9595 55.0743 87.9918 54.1365 87.9918C53.1179 87.9918 52.3094 87.9595 51.695 87.8948C51.0806 87.8302 50.6117 87.717 50.3045 87.5714C49.9811 87.4098 49.7709 87.2319 49.6577 87.0217C49.5445 86.8115 49.5122 86.569 49.5445 86.2941L51.3554 71.4995H40.7324L38.97 86.2941C38.9377 86.5366 38.8568 86.7792 38.7113 87.0055C38.5658 87.2157 38.3232 87.4098 37.9675 87.5714C37.628 87.717 37.1429 87.8302 36.5285 87.8948C35.8979 87.9595 35.0894 87.9918 34.0708 87.9918C33.1007 87.9918 32.3084 87.9595 31.694 87.8948C31.0957 87.8302 30.6268 87.717 30.3034 87.5714C29.9639 87.4098 29.7375 87.2319 29.6243 87.0217C29.5273 86.8115 29.495 86.569 29.5596 86.2941L31.2897 71.4995H26.7948C26.2612 71.4995 25.8246 71.1923 25.5012 70.594C25.1617 69.9958 25 68.9609 25 67.4734C25 66.7135 25.0485 66.0667 25.1455 65.5331C25.2425 64.9995 25.3557 64.563 25.5174 64.2558C25.6791 63.9324 25.8731 63.706 26.0833 63.5605C26.3097 63.415 26.5684 63.3503 26.8433 63.3503H32.3407L33.9576 49.7684H29.1393C28.6057 49.7684 28.1691 49.4612 27.8296 48.8629C27.49 48.2647 27.3283 47.2137 27.3283 45.71C27.3283 44.1901 27.5062 43.1229 27.8457 42.5247C28.2015 41.9264 28.6542 41.6192 29.1878 41.6192H34.9278L36.6417 27.8432C36.6417 27.5522 36.7225 27.3096 36.8842 27.1156C37.0297 26.9054 37.3046 26.7276 37.6765 26.5659C38.0645 26.4042 38.5658 26.291 39.1964 26.2102C39.827 26.1293 40.6354 26.097 41.6055 26.097C42.5918 26.097 43.368 26.1293 43.9662 26.2102C44.5645 26.291 45.0334 26.4042 45.3406 26.5659C45.664 26.7276 45.858 26.9054 45.9388 27.1156C46.0197 27.3096 46.052 27.536 46.052 27.7947L44.2896 41.6192H54.9126L56.5295 27.8432C56.5618 27.5845 56.6589 27.3582 56.8206 27.1318C56.9661 26.9216 57.2248 26.7276 57.5967 26.5659C57.9524 26.4042 58.4536 26.291 59.0842 26.2102C59.7148 26.1293 60.5394 26.097 61.5419 26.097C62.512 26.097 63.3043 26.1293 63.9026 26.2102C64.5008 26.291 64.9697 26.4042 65.2769 26.5659C65.6003 26.7276 65.7943 26.9054 65.8752 27.1156C65.9399 27.3096 65.9722 27.536 65.9399 27.7947L64.2745 41.6192H68.8018C69.3353 41.6192 69.7719 41.9264 70.0953 42.5408C70.4348 43.1714 70.5965 44.2062 70.5965 45.6614ZM43.3356 49.7684L41.7349 63.3503H52.2932L53.9586 49.7684H43.3356Z" fill="#FDB943"/>
		<path id="rakam" d="M116.678 82.9633C116.678 83.8526 116.63 84.5964 116.533 85.2108C116.436 85.8252 116.306 86.3264 116.128 86.6822C115.967 87.054 115.757 87.3127 115.546 87.4583C115.32 87.62 115.061 87.7008 114.786 87.7008H80.88C80.6374 87.7008 80.3949 87.62 80.1685 87.4583C79.9583 87.3127 79.7643 87.054 79.5865 86.6822C79.4086 86.3264 79.2792 85.8252 79.1822 85.2108C79.0852 84.5964 79.0367 83.8526 79.0367 82.9633C79.0367 82.0578 79.0691 81.2979 79.1499 80.6673C79.2307 80.0529 79.3601 79.5678 79.538 79.1797C79.7158 78.8079 79.9098 78.533 80.1362 78.3551C80.3464 78.1773 80.6051 78.0964 80.88 78.0964H92.3276V38.2237L82.4807 43.6565C81.7693 43.996 81.171 44.2224 80.7183 44.3032C80.2494 44.3679 79.8937 44.2871 79.6188 44.0122C79.3601 43.7373 79.1822 43.2846 79.0852 42.6217C78.9882 41.9587 78.9397 41.0209 78.9397 39.8244C78.9397 39.0645 78.9559 38.4339 78.9882 37.9488C79.0205 37.4638 79.1014 37.0434 79.2307 36.7038C79.3439 36.3481 79.5218 36.0732 79.7481 35.8469C79.9583 35.6205 80.2656 35.3941 80.6374 35.1354L93.799 26.6144C93.9607 26.485 94.1547 26.388 94.3811 26.3072C94.6236 26.2263 94.9308 26.1617 95.3189 26.1131C95.6908 26.0646 96.192 26.0323 96.8064 26.0161C97.4208 26 98.2131 26 99.1994 26C100.396 26 101.366 26.0161 102.11 26.0646C102.854 26.1131 103.42 26.194 103.791 26.3072C104.18 26.4204 104.422 26.5659 104.551 26.7599C104.681 26.9539 104.745 27.1803 104.745 27.4713V78.0964H114.77C115.061 78.0964 115.32 78.1773 115.562 78.3551C115.805 78.533 115.999 78.8079 116.177 79.1797C116.355 79.5678 116.484 80.0529 116.565 80.6673C116.646 81.2979 116.678 82.0578 116.678 82.9633Z" fill="#FDB943"/>
	</g>
</svg>
